<svg width="191" height="91" viewBox="0 0 191 91" fill="none" xmlns="http://www.w3.org/2000/svg">
<rect y="0.499878" width="190.466" height="60.3635" rx="30.1817" fill="#FFCC6A"/>
<path d="M33.3496 37.9716C29.4451 37.9716 26.391 34.8016 26.391 30.723C26.391 26.6638 29.4451 23.5131 33.3496 23.5131C37.0029 23.5131 39.8636 25.9487 40.3469 29.5053H37.2348C36.9062 27.5143 35.3599 26.142 33.3883 26.142C31.0107 26.142 29.4064 28.0169 29.4064 30.723C29.4064 33.4485 31.0107 35.3428 33.3883 35.3428C35.3599 35.3428 36.8869 33.9511 37.2348 31.9601H40.3469C39.8636 35.5554 37.0029 37.9716 33.3496 37.9716ZM44.8532 32.6753V37.6816H42.1664V27.3597H44.6406V29.3506C45.3944 28.0362 46.9988 27.2437 48.6611 27.2437V30.0272C46.3802 29.8532 44.8532 30.3944 44.8532 32.6753ZM54.4657 37.8556C51.373 37.8556 49.3047 35.71 49.3047 32.482C49.3047 29.4086 51.4503 27.1664 54.427 27.1664C57.6937 27.1664 59.8586 29.8146 59.3754 33.1779H52.0495C52.2235 34.8595 53.0353 35.7874 54.4077 35.7874C55.5868 35.7874 56.3793 35.2075 56.6886 34.183H59.356C58.7761 36.5219 56.9785 37.8556 54.4657 37.8556ZM54.369 29.138C53.1126 29.138 52.3201 29.9499 52.0882 31.4769H56.5339C56.4566 30.0465 55.6448 29.138 54.369 29.138ZM67.3217 37.6816V36.4059C66.6452 37.3724 65.6207 37.8749 64.2097 37.8749C62.0641 37.8749 60.6337 36.6185 60.6337 34.6856C60.6337 32.6753 62.2574 31.5929 65.2728 31.5929C65.8527 31.5929 66.3553 31.6315 66.9931 31.7088V31.0903C66.9931 29.9305 66.3359 29.254 65.2148 29.254C64.0551 29.254 63.3592 29.9305 63.2625 31.0903H60.8464C61.001 28.7128 62.7213 27.1664 65.2148 27.1664C67.9209 27.1664 69.506 28.6548 69.506 31.1869V37.6816H67.3217ZM63.1659 34.6083C63.1659 35.4781 63.7844 36.0193 64.7896 36.0193C66.162 36.0193 66.9931 35.2655 66.9931 34.067V33.3325C66.3553 33.2359 65.9107 33.1972 65.4468 33.1972C63.9197 33.1972 63.1659 33.6804 63.1659 34.6083ZM78.0876 35.0722V37.411C77.4304 37.7396 76.8119 37.8749 76.0194 37.8749C73.8931 37.8749 72.5594 36.6572 72.5594 34.3376V29.6599H70.4718V27.3597H72.5594V24.3057H75.2269V27.3597H78.1843V29.6599H75.2269V33.7191C75.2269 34.9175 75.7681 35.4008 76.7346 35.4008C77.2371 35.4008 77.701 35.2848 78.0876 35.0722ZM84.0828 37.8556C80.9901 37.8556 78.9218 35.71 78.9218 32.482C78.9218 29.4086 81.0674 27.1664 84.0441 27.1664C87.3108 27.1664 89.4757 29.8146 88.9925 33.1779H81.6666C81.8406 34.8595 82.6524 35.7874 84.0248 35.7874C85.2039 35.7874 85.9964 35.2075 86.3057 34.183H88.9731C88.3933 36.5219 86.5956 37.8556 84.0828 37.8556ZM83.9861 29.138C82.7297 29.138 81.9372 29.9499 81.7053 31.4769H86.151C86.0737 30.0465 85.2619 29.138 83.9861 29.138ZM100.186 33.1585H98.0017V37.6816H95.0636V23.8031H100.186C103.569 23.8031 105.675 25.4074 105.675 28.4228C105.675 31.4382 103.569 33.1585 100.186 33.1585ZM100.167 26.2773H98.0017V30.6844H100.167C101.829 30.6844 102.757 29.8146 102.757 28.4422C102.757 27.0698 101.829 26.2773 100.167 26.2773ZM111.814 37.8749C108.818 37.8749 106.576 35.5167 106.576 32.5207C106.576 29.5053 108.818 27.1664 111.814 27.1664C114.81 27.1664 117.052 29.5053 117.052 32.5207C117.052 35.5167 114.81 37.8749 111.814 37.8749ZM111.814 35.4974C113.148 35.4974 114.288 34.4343 114.288 32.5207C114.288 30.6071 113.148 29.5633 111.814 29.5633C110.48 29.5633 109.34 30.6071 109.34 32.5207C109.34 34.4343 110.48 35.4974 111.814 35.4974ZM127.485 34.3763C127.485 36.5412 125.842 37.8749 122.903 37.8749C119.965 37.8749 118.322 36.4639 118.11 34.1637H120.681C120.7 35.2268 121.608 35.9033 122.942 35.9033C123.986 35.9033 124.778 35.5747 124.778 34.8402C124.778 34.183 124.353 33.9124 123.367 33.7191L121.512 33.3712C119.656 33.0426 118.535 32.0181 118.535 30.4138C118.535 28.5001 120.178 27.1664 122.749 27.1664C125.339 27.1664 127.117 28.5388 127.311 30.7617H124.74C124.643 29.7566 123.889 29.138 122.749 29.138C121.763 29.138 121.106 29.5053 121.106 30.1625C121.106 30.781 121.531 31.0323 122.459 31.2063L124.45 31.5735C126.46 31.9601 127.485 32.8879 127.485 34.3763ZM135.529 35.0722V37.411C134.871 37.7396 134.253 37.8749 133.46 37.8749C131.334 37.8749 130 36.6572 130 34.3376V29.6599H127.913V27.3597H130V24.3057H132.668V27.3597H135.625V29.6599H132.668V33.7191C132.668 34.9175 133.209 35.4008 134.176 35.4008C134.678 35.4008 135.142 35.2848 135.529 35.0722Z" fill="#7551DC"/>
<g clip-path="url(#clip0_2022_631)">
<mask id="mask0_2022_631" style="mask-type:luminance" maskUnits="userSpaceOnUse" x="147" y="22" width="18" height="18">
<path d="M164.692 22.0907H147.511V39.2724H164.692V22.0907Z" fill="white"/>
</mask>
<g mask="url(#mask0_2022_631)">
<path d="M155.237 22.6172C155.6 21.9152 156.604 21.9152 156.967 22.6172L159.278 27.0875C159.371 27.2667 159.516 27.4126 159.696 27.5052L164.166 29.8166C164.868 30.1796 164.868 31.1835 164.166 31.5465L159.696 33.8579C159.516 33.9505 159.371 34.0964 159.278 34.2756L156.967 38.7459C156.604 39.4479 155.6 39.4479 155.237 38.7459L152.925 34.2756C152.833 34.0964 152.687 33.9505 152.508 33.8579L148.037 31.5465C147.335 31.1835 147.335 30.1796 148.037 29.8166L152.508 27.5052C152.687 27.4126 152.833 27.2667 152.925 27.0875L155.237 22.6172Z" fill="#7551DC"/>
</g>
</g>
<path d="M108.742 56.3918L86.1661 65.0749C84.0571 65.886 84.4701 68.9854 86.718 69.2159L97.1629 70.2872C98.092 70.3825 98.853 71.0673 99.0454 71.9813L101.17 82.0717C101.635 84.2822 104.759 84.3681 105.346 82.1865L111.587 58.9536C112.043 57.2576 110.381 55.7614 108.742 56.3918Z" fill="#1C1C1C"/>
<defs>
<clipPath id="clip0_2022_631">
<rect width="17.1817" height="17.1817" fill="white" transform="translate(147.511 22.0907)"/>
</clipPath>
</defs>
</svg>
