<svg width="239" height="150" viewBox="0 0 239 150" fill="none" xmlns="http://www.w3.org/2000/svg">
<g filter="url(#filter0_d_2051_34)">
<path d="M16 21.5408C16 17.1225 19.5817 13.5408 24 13.5408H216C220.418 13.5408 224 17.1225 224 21.5408V51.5408H16V21.5408Z" fill="#7551DC"/>
<path d="M28.416 37.5408L32.544 26.3408H34.4L38.496 37.5408H36.704L35.744 34.8048H31.168L30.208 37.5408H28.416ZM31.648 33.4608H35.264L33.456 28.3568L31.648 33.4608ZM41.79 37.7328C40.83 37.7328 40.0727 37.4341 39.518 36.8368C38.974 36.2395 38.702 35.3488 38.702 34.1648V29.6048H40.398V33.9888C40.398 35.5248 41.0273 36.2928 42.286 36.2928C42.9153 36.2928 43.4327 36.0688 43.838 35.6208C44.2433 35.1728 44.446 34.5328 44.446 33.7008V29.6048H46.142V37.5408H44.638L44.51 36.1488C44.2647 36.6395 43.902 37.0288 43.422 37.3168C42.9527 37.5941 42.4087 37.7328 41.79 37.7328ZM50.5875 35.1088C50.1715 35.1088 49.7875 35.0608 49.4355 34.9648L48.7475 35.6368C48.8648 35.7115 49.0088 35.7755 49.1795 35.8288C49.3502 35.8821 49.5902 35.9301 49.8995 35.9728C50.2088 36.0155 50.6302 36.0581 51.1635 36.1008C52.2195 36.1968 52.9822 36.4528 53.4515 36.8688C53.9208 37.2741 54.1555 37.8181 54.1555 38.5008C54.1555 38.9701 54.0275 39.4128 53.7715 39.8288C53.5262 40.2555 53.1368 40.5968 52.6035 40.8528C52.0808 41.1195 51.4088 41.2528 50.5875 41.2528C49.4782 41.2528 48.5768 41.0395 47.8835 40.6128C47.2008 40.1968 46.8595 39.5621 46.8595 38.7088C46.8595 38.3781 46.9448 38.0475 47.1155 37.7168C47.2968 37.3968 47.5795 37.0928 47.9635 36.8048C47.7395 36.7088 47.5422 36.6075 47.3715 36.5008C47.2115 36.3835 47.0675 36.2661 46.9395 36.1488V35.7648L48.3155 34.3568C47.6968 33.8235 47.3875 33.1248 47.3875 32.2608C47.3875 31.7381 47.5102 31.2635 47.7555 30.8368C48.0115 30.3995 48.3795 30.0528 48.8595 29.7968C49.3395 29.5408 49.9155 29.4128 50.5875 29.4128C51.0355 29.4128 51.4515 29.4768 51.8355 29.6048H54.7955V30.7248L53.3875 30.8048C53.6435 31.2421 53.7715 31.7275 53.7715 32.2608C53.7715 32.7941 53.6435 33.2741 53.3875 33.7008C53.1422 34.1275 52.7795 34.4688 52.2995 34.7248C51.8302 34.9808 51.2595 35.1088 50.5875 35.1088ZM50.5875 33.7808C51.0782 33.7808 51.4728 33.6528 51.7715 33.3968C52.0808 33.1301 52.2355 32.7568 52.2355 32.2768C52.2355 31.7861 52.0808 31.4128 51.7715 31.1568C51.4728 30.9008 51.0782 30.7728 50.5875 30.7728C50.0862 30.7728 49.6808 30.9008 49.3715 31.1568C49.0728 31.4128 48.9235 31.7861 48.9235 32.2768C48.9235 32.7568 49.0728 33.1301 49.3715 33.3968C49.6808 33.6528 50.0862 33.7808 50.5875 33.7808ZM48.4595 38.5488C48.4595 39.0075 48.6622 39.3488 49.0675 39.5728C49.4728 39.8075 49.9795 39.9248 50.5875 39.9248C51.1742 39.9248 51.6488 39.7968 52.0115 39.5408C52.3742 39.2955 52.5555 38.9648 52.5555 38.5488C52.5555 38.2395 52.4328 37.9728 52.1875 37.7488C51.9422 37.5355 51.4782 37.4021 50.7955 37.3488C50.2835 37.3168 49.8302 37.2688 49.4355 37.2048C49.0622 37.4075 48.8062 37.6261 48.6675 37.8608C48.5288 38.0955 48.4595 38.3248 48.4595 38.5488ZM58.2763 37.7328C57.3163 37.7328 56.5589 37.4341 56.0043 36.8368C55.4603 36.2395 55.1883 35.3488 55.1883 34.1648V29.6048H56.8843V33.9888C56.8843 35.5248 57.5136 36.2928 58.7723 36.2928C59.4016 36.2928 59.9189 36.0688 60.3243 35.6208C60.7296 35.1728 60.9323 34.5328 60.9323 33.7008V29.6048H62.6283V37.5408H61.1243L60.9963 36.1488C60.7509 36.6395 60.3883 37.0288 59.9083 37.3168C59.4389 37.5941 58.8949 37.7328 58.2763 37.7328ZM66.9938 37.7328C65.9911 37.7328 65.1644 37.4875 64.5137 36.9968C63.8631 36.5061 63.4897 35.8555 63.3937 35.0448H65.1057C65.1911 35.4075 65.3937 35.7221 65.7137 35.9888C66.0337 36.2448 66.4551 36.3728 66.9777 36.3728C67.4897 36.3728 67.8631 36.2661 68.0978 36.0528C68.3324 35.8395 68.4497 35.5941 68.4497 35.3168C68.4497 34.9115 68.2844 34.6395 67.9538 34.5008C67.6338 34.3515 67.1858 34.2181 66.6098 34.1008C66.1618 34.0048 65.7138 33.8768 65.2657 33.7168C64.8284 33.5568 64.4604 33.3328 64.1617 33.0448C63.8737 32.7461 63.7297 32.3461 63.7297 31.8448C63.7297 31.1515 63.9964 30.5755 64.5297 30.1168C65.0631 29.6475 65.8098 29.4128 66.7698 29.4128C67.6551 29.4128 68.3698 29.6261 68.9138 30.0528C69.4684 30.4795 69.7937 31.0821 69.8898 31.8608H68.2578C68.2044 31.5195 68.0444 31.2528 67.7778 31.0608C67.5218 30.8688 67.1751 30.7728 66.7378 30.7728C66.3111 30.7728 65.9804 30.8635 65.7457 31.0448C65.5111 31.2155 65.3937 31.4395 65.3937 31.7168C65.3937 31.9941 65.5537 32.2128 65.8737 32.3728C66.2044 32.5328 66.6364 32.6768 67.1698 32.8048C67.7031 32.9221 68.1938 33.0608 68.6418 33.2208C69.1004 33.3701 69.4684 33.5941 69.7457 33.8928C70.0231 34.1915 70.1618 34.6288 70.1618 35.2048C70.1724 35.9301 69.8898 36.5328 69.3138 37.0128C68.7484 37.4928 67.9751 37.7328 66.9938 37.7328ZM74.0844 37.5408C73.3057 37.5408 72.687 37.3541 72.2284 36.9808C71.7697 36.5968 71.5404 35.9195 71.5404 34.9488V31.0288H70.1804V29.6048H71.5404L71.7484 27.5888H73.2364V29.6048H75.4764V31.0288H73.2364V34.9488C73.2364 35.3861 73.327 35.6901 73.5084 35.8608C73.7004 36.0208 74.0257 36.1008 74.4844 36.1008H75.3964V37.5408H74.0844ZM79.1764 37.5408V36.3248C79.9017 35.7488 80.595 35.1675 81.256 34.5808C81.918 33.9941 82.504 33.4181 83.016 32.8528C83.539 32.2768 83.95 31.7168 84.248 31.1728C84.547 30.6181 84.696 30.0848 84.696 29.5728C84.696 29.2315 84.638 28.9115 84.52 28.6128C84.403 28.3035 84.211 28.0581 83.944 27.8768C83.678 27.6848 83.32 27.5888 82.872 27.5888C82.2 27.5888 81.694 27.8021 81.352 28.2288C81.022 28.6555 80.8617 29.1675 80.8724 29.7648H79.2244C79.235 28.9755 79.4004 28.3141 79.7204 27.7808C80.051 27.2475 80.4884 26.8421 81.032 26.5648C81.587 26.2875 82.211 26.1488 82.904 26.1488C83.96 26.1488 84.803 26.4475 85.432 27.0448C86.072 27.6315 86.392 28.4528 86.392 29.5088C86.392 30.1381 86.238 30.7621 85.928 31.3808C85.63 31.9995 85.235 32.5968 84.744 33.1728C84.264 33.7381 83.747 34.2715 83.192 34.7728C82.638 35.2741 82.11 35.7275 81.608 36.1328H86.728V37.5408H79.1764ZM91.952 37.7328C90.938 37.7328 90.064 37.4928 89.328 37.0128C88.602 36.5221 88.042 35.8448 87.648 34.9808C87.264 34.1061 87.072 33.0928 87.072 31.9408C87.072 30.7888 87.264 29.7808 87.648 28.9168C88.042 28.0421 88.602 27.3648 89.328 26.8848C90.064 26.3941 90.938 26.1488 91.952 26.1488C92.965 26.1488 93.834 26.3941 94.56 26.8848C95.285 27.3648 95.84 28.0421 96.224 28.9168C96.618 29.7808 96.816 30.7888 96.816 31.9408C96.816 33.0928 96.618 34.1061 96.224 34.9808C95.84 35.8448 95.285 36.5221 94.56 37.0128C93.834 37.4928 92.965 37.7328 91.952 37.7328ZM91.952 36.2128C92.56 36.2128 93.098 36.0421 93.568 35.7008C94.048 35.3595 94.421 34.8688 94.688 34.2288C94.954 33.5888 95.088 32.8261 95.088 31.9408C95.088 31.0555 94.954 30.2928 94.688 29.6528C94.421 29.0128 94.048 28.5221 93.568 28.1808C93.098 27.8395 92.56 27.6688 91.952 27.6688C91.333 27.6688 90.789 27.8395 90.32 28.1808C89.85 28.5221 89.482 29.0128 89.216 29.6528C88.949 30.2928 88.816 31.0555 88.816 31.9408C88.816 32.8261 88.949 33.5888 89.216 34.2288C89.482 34.8688 89.85 35.3595 90.32 35.7008C90.789 36.0421 91.333 36.2128 91.952 36.2128ZM97.397 37.5408V36.3248C98.122 35.7488 98.816 35.1675 99.477 34.5808C100.138 33.9941 100.725 33.4181 101.237 32.8528C101.76 32.2768 102.17 31.7168 102.469 31.1728C102.768 30.6181 102.917 30.0848 102.917 29.5728C102.917 29.2315 102.858 28.9115 102.741 28.6128C102.624 28.3035 102.432 28.0581 102.165 27.8768C101.898 27.6848 101.541 27.5888 101.093 27.5888C100.421 27.5888 99.914 27.8021 99.573 28.2288C99.242 28.6555 99.082 29.1675 99.093 29.7648H97.445C97.456 28.9755 97.621 28.3141 97.941 27.7808C98.272 27.2475 98.709 26.8421 99.253 26.5648C99.808 26.2875 100.432 26.1488 101.125 26.1488C102.181 26.1488 103.024 26.4475 103.653 27.0448C104.293 27.6315 104.613 28.4528 104.613 29.5088C104.613 30.1381 104.458 30.7621 104.149 31.3808C103.85 31.9995 103.456 32.5968 102.965 33.1728C102.485 33.7381 101.968 34.2715 101.413 34.7728C100.858 35.2741 100.33 35.7275 99.829 36.1328H104.949V37.5408H97.397ZM110.718 37.5408V35.3008H105.102V33.9568L110.446 26.3408H112.398V33.8288H113.966V35.3008H112.398V37.5408H110.718ZM106.942 33.8288H110.814V28.2128L106.942 33.8288Z" fill="white"/>
<path d="M163.996 37.0548L161.35 27.2408H162.946L164.892 35.3608L167.132 27.2408H168.77L170.94 35.3608L172.886 27.2408H174.482L171.794 37.0408H170.058L167.916 29.3548L165.704 37.0408L163.996 37.0548ZM177.471 37.2088C176.79 37.2088 176.183 37.0595 175.651 36.7608C175.128 36.4528 174.718 36.0281 174.419 35.4868C174.12 34.9455 173.971 34.3155 173.971 33.5968C173.971 32.8688 174.116 32.2295 174.405 31.6788C174.704 31.1281 175.114 30.6988 175.637 30.3908C176.169 30.0828 176.785 29.9288 177.485 29.9288C178.166 29.9288 178.759 30.0828 179.263 30.3908C179.767 30.6895 180.159 31.0908 180.439 31.5948C180.719 32.0988 180.859 32.6541 180.859 33.2608C180.859 33.3541 180.854 33.4568 180.845 33.5688C180.845 33.6715 180.84 33.7881 180.831 33.9188H175.427C175.474 34.5908 175.693 35.1041 176.085 35.4588C176.486 35.8041 176.948 35.9768 177.471 35.9768C177.891 35.9768 178.241 35.8835 178.521 35.6968C178.81 35.5008 179.025 35.2395 179.165 34.9128H180.649C180.462 35.5661 180.089 36.1121 179.529 36.5508C178.978 36.9895 178.292 37.2088 177.471 37.2088ZM177.471 31.1468C176.976 31.1468 176.538 31.2961 176.155 31.5948C175.772 31.8841 175.539 32.3228 175.455 32.9108H179.375C179.347 32.3695 179.156 31.9401 178.801 31.6228C178.446 31.3055 178.003 31.1468 177.471 31.1468ZM184.807 37.2088C184.125 37.2088 183.519 37.0595 182.987 36.7608C182.464 36.4528 182.053 36.0281 181.755 35.4868C181.456 34.9455 181.307 34.3155 181.307 33.5968C181.307 32.8688 181.451 32.2295 181.741 31.6788C182.039 31.1281 182.45 30.6988 182.973 30.3908C183.505 30.0828 184.121 29.9288 184.821 29.9288C185.502 29.9288 186.095 30.0828 186.599 30.3908C187.103 30.6895 187.495 31.0908 187.775 31.5948C188.055 32.0988 188.195 32.6541 188.195 33.2608C188.195 33.3541 188.19 33.4568 188.181 33.5688C188.181 33.6715 188.176 33.7881 188.167 33.9188H182.763C182.809 34.5908 183.029 35.1041 183.421 35.4588C183.822 35.8041 184.284 35.9768 184.807 35.9768C185.227 35.9768 185.577 35.8835 185.857 35.6968C186.146 35.5008 186.361 35.2395 186.501 34.9128H187.985C187.798 35.5661 187.425 36.1121 186.865 36.5508C186.314 36.9895 185.628 37.2088 184.807 37.2088ZM184.807 31.1468C184.312 31.1468 183.873 31.2961 183.491 31.5948C183.108 31.8841 182.875 32.3228 182.791 32.9108H186.711C186.683 32.3695 186.491 31.9401 186.137 31.6228C185.782 31.3055 185.339 31.1468 184.807 31.1468ZM188.895 37.0408V26.9608H190.379V32.9668L193.039 30.0968H194.817L191.863 33.2468L195.251 37.0408H193.375L190.379 33.4848V37.0408H188.895ZM196.624 37.0408V28.9208L195.042 29.2848V28.1928L197.212 27.2408H198.164V37.0408H196.624Z" fill="white"/>
</g>
<path d="M224 51.5408H16V170.541H224V51.5408Z" fill="white"/>
<path d="M44 69.7908C42.0716 69.7908 40.1866 70.3626 38.5832 71.434C36.9798 72.5053 35.7301 74.0281 34.9922 75.8096C34.2542 77.5912 34.0611 79.5516 34.4373 81.4429C34.8136 83.3342 35.7422 85.0715 37.1057 86.4351C38.4693 87.7987 40.2066 88.7273 42.0979 89.1035C43.9892 89.4797 45.9496 89.2866 47.7312 88.5486C49.5127 87.8107 51.0355 86.561 52.1068 84.9576C53.1782 83.3542 53.75 81.4692 53.75 79.5408C53.7473 76.9558 52.7192 74.4774 50.8913 72.6495C49.0634 70.8216 46.585 69.7935 44 69.7908ZM48.2806 77.8214L43.0306 83.0714C42.961 83.1412 42.8783 83.1965 42.7872 83.2342C42.6962 83.272 42.5986 83.2914 42.5 83.2914C42.4014 83.2914 42.3038 83.272 42.2128 83.2342C42.1218 83.1965 42.039 83.1412 41.9694 83.0714L39.7194 80.8214C39.5786 80.6807 39.4996 80.4898 39.4996 80.2908C39.4996 80.0918 39.5786 79.9009 39.7194 79.7602C39.8601 79.6194 40.051 79.5404 40.25 79.5404C40.449 79.5404 40.6399 79.6194 40.7806 79.7602L42.5 81.4805L47.2194 76.7602C47.2891 76.6905 47.3718 76.6352 47.4628 76.5975C47.5539 76.5598 47.6515 76.5404 47.75 76.5404C47.8486 76.5404 47.9461 76.5598 48.0372 76.5975C48.1282 76.6352 48.2109 76.6905 48.2806 76.7602C48.3503 76.8299 48.4056 76.9126 48.4433 77.0036C48.481 77.0947 48.5004 77.1923 48.5004 77.2908C48.5004 77.3893 48.481 77.4869 48.4433 77.578C48.4056 77.669 48.3503 77.7517 48.2806 77.8214Z" fill="#7551DC"/>
<path d="M94.6672 69.7908C92.7392 69.7908 90.8542 70.3626 89.2502 71.434C87.6472 72.5053 86.3972 74.0281 85.6592 75.8096C84.9212 77.5912 84.7282 79.5516 85.1042 81.4429C85.4812 83.3342 86.4092 85.0715 87.7732 86.4351C89.1362 87.7987 90.8742 88.7273 92.7652 89.1035C94.6562 89.4797 96.6172 89.2866 98.3982 88.5486C100.18 87.8107 101.702 86.561 102.774 84.9576C103.845 83.3542 104.417 81.4692 104.417 79.5408C104.414 76.9558 103.386 74.4774 101.558 72.6495C99.7302 70.8216 97.2522 69.7935 94.6672 69.7908ZM98.9482 77.8214L93.6982 83.0714C93.6282 83.1412 93.5452 83.1965 93.4542 83.2342C93.3632 83.272 93.2662 83.2914 93.1672 83.2914C93.0682 83.2914 92.9712 83.272 92.8802 83.2342C92.7892 83.1965 92.7062 83.1412 92.6362 83.0714L90.3862 80.8214C90.2462 80.6807 90.1672 80.4898 90.1672 80.2908C90.1672 80.0918 90.2462 79.9009 90.3862 79.7602C90.5272 79.6194 90.7182 79.5404 90.9172 79.5404C91.1162 79.5404 91.3072 79.6194 91.4482 79.7602L93.1672 81.4805L97.8862 76.7602C97.9562 76.6905 98.0392 76.6352 98.1302 76.5975C98.2212 76.5598 98.3182 76.5404 98.4172 76.5404C98.5162 76.5404 98.6132 76.5598 98.7042 76.5975C98.7952 76.6352 98.8782 76.6905 98.9482 76.7602C99.0172 76.8299 99.0732 76.9126 99.1102 77.0036C99.1482 77.0947 99.1672 77.1923 99.1672 77.2908C99.1672 77.3893 99.1482 77.4869 99.1102 77.578C99.0732 77.669 99.0172 77.7517 98.9482 77.8214Z" fill="#7551DC"/>
<path d="M145.333 69.7908C143.405 69.7908 141.52 70.3626 139.916 71.434C138.313 72.5053 137.063 74.0281 136.325 75.8096C135.587 77.5912 135.394 79.5516 135.77 81.4429C136.147 83.3342 137.075 85.0715 138.439 86.4351C139.802 87.7987 141.54 88.7273 143.431 89.1035C145.322 89.4797 147.283 89.2866 149.064 88.5486C150.846 87.8107 152.368 86.561 153.44 84.9576C154.511 83.3542 155.083 81.4692 155.083 79.5408C155.08 76.9558 154.052 74.4774 152.224 72.6495C150.396 70.8216 147.918 69.7935 145.333 69.7908ZM149.614 77.8214L144.364 83.0714C144.294 83.1412 144.211 83.1965 144.12 83.2342C144.029 83.272 143.932 83.2914 143.833 83.2914C143.734 83.2914 143.637 83.272 143.546 83.2342C143.455 83.1965 143.372 83.1412 143.302 83.0714L141.052 80.8214C140.912 80.6807 140.833 80.4898 140.833 80.2908C140.833 80.0918 140.912 79.9009 141.052 79.7602C141.193 79.6194 141.384 79.5404 141.583 79.5404C141.782 79.5404 141.973 79.6194 142.114 79.7602L143.833 81.4805L148.552 76.7602C148.622 76.6905 148.705 76.6352 148.796 76.5975C148.887 76.5598 148.984 76.5404 149.083 76.5404C149.182 76.5404 149.279 76.5598 149.37 76.5975C149.461 76.6352 149.544 76.6905 149.614 76.7602C149.683 76.8299 149.739 76.9126 149.776 77.0036C149.814 77.0947 149.833 77.1923 149.833 77.2908C149.833 77.3893 149.814 77.4869 149.776 77.578C149.739 77.669 149.683 77.7517 149.614 77.8214Z" fill="#7551DC"/>
<path d="M196 69.7908C194.072 69.7908 192.187 70.3626 190.583 71.434C188.98 72.5053 187.73 74.0281 186.992 75.8096C186.254 77.5912 186.061 79.5516 186.437 81.4429C186.814 83.3342 187.742 85.0715 189.106 86.4351C190.469 87.7987 192.207 88.7273 194.098 89.1035C195.989 89.4797 197.95 89.2866 199.731 88.5486C201.513 87.8107 203.035 86.561 204.107 84.9576C205.178 83.3542 205.75 81.4692 205.75 79.5408C205.747 76.9558 204.719 74.4774 202.891 72.6495C201.063 70.8216 198.585 69.7935 196 69.7908ZM200.281 77.8214L195.031 83.0714C194.961 83.1412 194.878 83.1965 194.787 83.2342C194.696 83.272 194.599 83.2914 194.5 83.2914C194.401 83.2914 194.304 83.272 194.213 83.2342C194.122 83.1965 194.039 83.1412 193.969 83.0714L191.719 80.8214C191.579 80.6807 191.5 80.4898 191.5 80.2908C191.5 80.0918 191.579 79.9009 191.719 79.7602C191.86 79.6194 192.051 79.5404 192.25 79.5404C192.449 79.5404 192.64 79.6194 192.781 79.7602L194.5 81.4805L199.219 76.7602C199.289 76.6905 199.372 76.6352 199.463 76.5975C199.554 76.5598 199.651 76.5404 199.75 76.5404C199.849 76.5404 199.946 76.5598 200.037 76.5975C200.128 76.6352 200.211 76.6905 200.281 76.7602C200.35 76.8299 200.406 76.9126 200.443 77.0036C200.481 77.0947 200.5 77.1923 200.5 77.2908C200.5 77.3893 200.481 77.4869 200.443 77.578C200.406 77.669 200.35 77.7517 200.281 77.8214Z" fill="#7551DC"/>
<path d="M51 107.541H36C33.7909 107.541 32 109.332 32 111.541V126.541C32 128.75 33.7909 130.541 36 130.541H51C53.2091 130.541 55 128.75 55 126.541V111.541C55 109.332 53.2091 107.541 51 107.541Z" fill="#FCEBD1"/>
<path d="M102 107.541H87C84.7909 107.541 83 109.332 83 111.541V126.541C83 128.75 84.7909 130.541 87 130.541H102C104.209 130.541 106 128.75 106 126.541V111.541C106 109.332 104.209 107.541 102 107.541Z" fill="#FCEBD1"/>
<path d="M153 107.541H138C135.791 107.541 134 109.332 134 111.541V126.541C134 128.75 135.791 130.541 138 130.541H153C155.209 130.541 157 128.75 157 126.541V111.541C157 109.332 155.209 107.541 153 107.541Z" fill="#FCEBD1"/>
<path d="M204 107.541H189C186.791 107.541 185 109.332 185 111.541V126.541C185 128.75 186.791 130.541 189 130.541H204C206.209 130.541 208 128.75 208 126.541V111.541C208 109.332 206.209 107.541 204 107.541Z" fill="#FCEBD1"/>
<path d="M51 146.541H36C33.7909 146.541 32 148.332 32 150.541V165.541C32 167.75 33.7909 169.541 36 169.541H51C53.2091 169.541 55 167.75 55 165.541V150.541C55 148.332 53.2091 146.541 51 146.541Z" fill="#FCEBD1"/>
<path d="M102 146.541H87C84.7909 146.541 83 148.332 83 150.541V165.541C83 167.75 84.7909 169.541 87 169.541H102C104.209 169.541 106 167.75 106 165.541V150.541C106 148.332 104.209 146.541 102 146.541Z" fill="#FCEBD1"/>
<path d="M153 146.541H138C135.791 146.541 134 148.332 134 150.541V165.541C134 167.75 135.791 169.541 138 169.541H153C155.209 169.541 157 167.75 157 165.541V150.541C157 148.332 155.209 146.541 153 146.541Z" fill="#FCEBD1"/>
<path d="M204 146.541H189C186.791 146.541 185 148.332 185 150.541V165.541C185 167.75 186.791 169.541 189 169.541H204C206.209 169.541 208 167.75 208 165.541V150.541C208 148.332 206.209 146.541 204 146.541Z" fill="#FCEBD1"/>
<defs>
<filter id="filter0_d_2051_34" x="-18.2351" y="0.824872" width="256.907" height="86.9072" filterUnits="userSpaceOnUse" color-interpolation-filters="sRGB">
<feFlood flood-opacity="0" result="BackgroundImageFix"/>
<feColorMatrix in="SourceAlpha" type="matrix" values="0 0 0 0 0 0 0 0 0 0 0 0 0 0 0 0 0 0 127 0" result="hardAlpha"/>
<feOffset dx="-9.78145" dy="11.7377"/>
<feGaussianBlur stdDeviation="12.2268"/>
<feComposite in2="hardAlpha" operator="out"/>
<feColorMatrix type="matrix" values="0 0 0 0 0.384371 0 0 0 0 0.102708 0 0 0 0 0.483333 0 0 0 0.05 0"/>
<feBlend mode="normal" in2="BackgroundImageFix" result="effect1_dropShadow_2051_34"/>
<feBlend mode="normal" in="SourceGraphic" in2="effect1_dropShadow_2051_34" result="shape"/>
</filter>
</defs>
</svg>
