<svg width="43" height="43" viewBox="0 0 43 43" fill="none" xmlns="http://www.w3.org/2000/svg">
<circle cx="21.2704" cy="21.2704" r="21.2704" fill="#FFCC6A"/>
<path d="M21.3955 16.5203C20.4313 16.5203 19.4888 16.8062 18.6871 17.3419C17.8854 17.8776 17.2606 18.639 16.8916 19.5297C16.5226 20.4205 16.4261 21.4007 16.6142 22.3464C16.8023 23.292 17.2666 24.1607 17.9484 24.8425C18.6301 25.5243 19.4988 25.9886 20.4444 26.1767C21.3901 26.3648 22.3703 26.2682 23.2611 25.8992C24.1519 25.5303 24.9132 24.9054 25.4489 24.1037C25.9846 23.302 26.2705 22.3595 26.2705 21.3953C26.2692 20.1028 25.7551 18.8636 24.8412 17.9497C23.9272 17.0357 22.688 16.5217 21.3955 16.5203ZM21.3955 23.8328C20.9134 23.8328 20.4422 23.6899 20.0413 23.422C19.6405 23.1542 19.328 22.7735 19.1436 22.3281C18.9591 21.8827 18.9108 21.3926 19.0048 20.9198C19.0989 20.447 19.331 20.0126 19.6719 19.6718C20.0128 19.3309 20.4471 19.0987 20.92 19.0047C21.3928 18.9106 21.8829 18.9589 22.3283 19.1434C22.7737 19.3279 23.1544 19.6403 23.4222 20.0411C23.6901 20.442 23.833 20.9132 23.833 21.3953C23.833 22.0418 23.5762 22.6618 23.1191 23.1189C22.662 23.576 22.042 23.8328 21.3955 23.8328ZM26.2705 10.4266H16.5205C14.9049 10.4285 13.356 11.0711 12.2137 12.2135C11.0713 13.3559 10.4286 14.9047 10.4268 16.5203V26.2703C10.4286 27.8859 11.0713 29.4348 12.2137 30.5772C13.356 31.7196 14.9049 32.3622 16.5205 32.3641H26.2705C27.8861 32.3622 29.435 31.7196 30.5774 30.5772C31.7198 29.4348 32.3624 27.8859 32.3643 26.2703V16.5203C32.3624 14.9047 31.7198 13.3559 30.5774 12.2135C29.435 11.0711 27.8861 10.4285 26.2705 10.4266ZM29.9268 26.2703C29.9268 27.24 29.5415 28.17 28.8559 28.8557C28.1702 29.5414 27.2402 29.9266 26.2705 29.9266H16.5205C15.5508 29.9266 14.6208 29.5414 13.9351 28.8557C13.2495 28.17 12.8643 27.24 12.8643 26.2703V16.5203C12.8643 15.5506 13.2495 14.6206 13.9351 13.935C14.6208 13.2493 15.5508 12.8641 16.5205 12.8641H26.2705C27.2402 12.8641 28.1702 13.2493 28.8559 13.935C29.5415 14.6206 29.9268 15.5506 29.9268 16.5203V26.2703ZM28.3018 16.1141C28.3018 16.4355 28.2065 16.7496 28.0279 17.0169C27.8493 17.2841 27.5955 17.4924 27.2986 17.6154C27.0017 17.7384 26.675 17.7706 26.3597 17.7079C26.0445 17.6452 25.755 17.4904 25.5277 17.2631C25.3004 17.0359 25.1457 16.7463 25.083 16.4311C25.0203 16.1159 25.0525 15.7891 25.1755 15.4922C25.2984 15.1953 25.5067 14.9415 25.774 14.7629C26.0412 14.5844 26.3554 14.4891 26.6768 14.4891C27.1077 14.4891 27.5211 14.6603 27.8258 14.965C28.1306 15.2698 28.3018 15.6831 28.3018 16.1141Z" fill="#7551DC"/>
</svg>
