<svg width="44" height="43" viewBox="0 0 44 43" fill="none" xmlns="http://www.w3.org/2000/svg">
<circle cx="21.8114" cy="21.2704" r="21.2704" fill="#FFCC6A"/>
<path d="M30.5142 29.6788L24.3189 19.9491L30.3842 13.2774C30.597 13.0375 30.7067 12.7234 30.6895 12.4032C30.6723 12.0829 30.5295 11.7824 30.2922 11.5667C30.0548 11.351 29.742 11.2376 29.4216 11.251C29.1012 11.2643 28.799 11.4035 28.5805 11.6382L22.9671 17.8173L19.1392 11.8038C19.0292 11.6308 18.8773 11.4884 18.6977 11.3897C18.518 11.291 18.3164 11.2392 18.1114 11.2391H13.2364C13.0181 11.2392 12.8038 11.2979 12.6159 11.4092C12.4281 11.5204 12.2736 11.6801 12.1685 11.8715C12.0635 12.0629 12.0118 12.2789 12.0188 12.4972C12.0259 12.7154 12.0914 12.9277 12.2086 13.1119L18.4039 22.8416L12.3345 29.5132C12.2246 29.6313 12.1393 29.7699 12.0834 29.9212C12.0275 30.0725 12.0021 30.2334 12.0089 30.3945C12.0156 30.5557 12.0543 30.7139 12.1226 30.8599C12.1909 31.006 12.2875 31.1371 12.4069 31.2456C12.5262 31.354 12.6659 31.4377 12.8179 31.4918C12.9698 31.5459 13.131 31.5693 13.292 31.5606C13.4531 31.552 13.6108 31.5114 13.7561 31.4414C13.9013 31.3713 14.0312 31.2731 14.1383 31.1524L19.7557 24.9734L23.5836 30.9869C23.6936 31.1599 23.8454 31.3023 24.0251 31.401C24.2048 31.4997 24.4064 31.5515 24.6114 31.5516H29.4864C29.7047 31.5515 29.919 31.4927 30.1068 31.3815C30.2947 31.2702 30.4492 31.1106 30.5543 30.9192C30.6593 30.7278 30.711 30.5117 30.7039 30.2935C30.6969 30.0753 30.6314 29.863 30.5142 29.6788ZM25.2807 29.1141L15.4565 13.6766H17.4421L27.2662 29.1141H25.2807Z" fill="#7551DC"/>
</svg>
