<svg width="310" height="274" viewBox="0 0 310 274" fill="none" xmlns="http://www.w3.org/2000/svg">
<rect x="0.969727" y="0.790771" width="308.06" height="272.91" rx="16.8549" fill="white"/>
<path d="M20.2488 36.9108V25.4842H24.5583C25.7444 25.4842 26.6422 25.7618 27.2517 26.3168C27.8611 26.8718 28.1658 27.5682 28.1658 28.4062C28.1658 29.1353 27.9699 29.7175 27.5781 30.1528C27.1864 30.5772 26.713 30.8656 26.158 31.018C26.5933 31.105 26.9796 31.2791 27.317 31.5403C27.6652 31.8015 27.9373 32.128 28.1331 32.5197C28.329 32.9115 28.427 33.3359 28.427 33.793C28.427 34.3806 28.2801 34.9139 27.9862 35.3927C27.7033 35.8606 27.2843 36.2306 26.7293 36.5027C26.1743 36.7748 25.4942 36.9108 24.6889 36.9108H20.2488ZM21.9791 30.3813H24.3461C25.0099 30.3813 25.5159 30.229 25.8642 29.9243C26.2124 29.6087 26.3865 29.1788 26.3865 28.6347C26.3865 28.1015 26.2124 27.6771 25.8642 27.3615C25.5268 27.0459 25.0099 26.8881 24.3134 26.8881H21.9791V30.3813ZM21.9791 35.4906H24.4603C25.1568 35.4906 25.6955 35.3274 26.0764 35.0009C26.4681 34.6745 26.664 34.2174 26.664 33.6297C26.664 33.0421 26.4627 32.5796 26.06 32.2422C25.6574 31.894 25.1133 31.7199 24.4277 31.7199H21.9791V35.4906ZM33.2292 37.1067C32.4348 37.1067 31.7274 36.9326 31.1071 36.5843C30.4977 36.2252 30.0189 35.7301 29.6706 35.0989C29.3224 34.4677 29.1483 33.7331 29.1483 32.8952C29.1483 32.0464 29.3169 31.3009 29.6543 30.6588C30.0025 30.0168 30.4814 29.5162 31.0908 29.1571C31.7111 28.7979 32.4293 28.6184 33.2455 28.6184C34.0399 28.6184 34.731 28.7979 35.3186 29.1571C35.9063 29.5053 36.3633 29.9733 36.6898 30.5609C37.0163 31.1486 37.1795 31.7961 37.1795 32.5034C37.1795 32.6122 37.1741 32.7319 37.1632 32.8625C37.1632 32.9822 37.1577 33.1183 37.1468 33.2706H30.8459C30.9003 34.0542 31.1561 34.6527 31.6131 35.0662C32.0811 35.4689 32.6198 35.6702 33.2292 35.6702C33.7189 35.6702 34.127 35.5614 34.4534 35.3437C34.7908 35.1152 35.0411 34.8105 35.2043 34.4296H36.9346C36.717 35.1914 36.2817 35.828 35.6288 36.3395C34.9867 36.8509 34.1868 37.1067 33.2292 37.1067ZM33.2292 30.0385C32.6524 30.0385 32.1409 30.2127 31.6948 30.5609C31.2486 30.8983 30.9765 31.4097 30.8786 32.0953H35.4492C35.4165 31.4641 35.1935 30.9636 34.7799 30.5935C34.3664 30.2235 33.8495 30.0385 33.2292 30.0385ZM41.3907 37.1067C40.3678 37.1067 39.5244 36.8564 38.8606 36.3558C38.1967 35.8552 37.8159 35.1914 37.7179 34.3643H39.4646C39.5516 34.7343 39.7584 35.0553 40.0848 35.3274C40.4113 35.5886 40.8412 35.7192 41.3744 35.7192C41.8968 35.7192 42.2777 35.6103 42.5171 35.3927C42.7565 35.1751 42.8762 34.9248 42.8762 34.6418C42.8762 34.2283 42.7075 33.9508 42.3702 33.8093C42.0437 33.657 41.5866 33.5209 40.999 33.4012C40.5419 33.3033 40.0848 33.1727 39.6278 33.0094C39.1816 32.8462 38.8062 32.6177 38.5015 32.3239C38.2076 32.0191 38.0607 31.6111 38.0607 31.0996C38.0607 30.3922 38.3328 29.8046 38.8769 29.3366C39.421 28.8578 40.1828 28.6184 41.1622 28.6184C42.0655 28.6184 42.7946 28.836 43.3496 29.2713C43.9155 29.7066 44.2474 30.3215 44.3453 31.1159H42.6803C42.6259 30.7677 42.4627 30.4956 42.1906 30.2997C41.9294 30.1038 41.5757 30.0059 41.1296 30.0059C40.6943 30.0059 40.3569 30.0984 40.1175 30.2834C39.8781 30.4575 39.7584 30.686 39.7584 30.969C39.7584 31.2519 39.9216 31.475 40.2481 31.6383C40.5854 31.8015 41.0262 31.9484 41.5703 32.079C42.1144 32.1987 42.615 32.3402 43.0721 32.5034C43.54 32.6558 43.9155 32.8843 44.1984 33.189C44.4813 33.4937 44.6228 33.9399 44.6228 34.5275C44.6337 35.2676 44.3453 35.8824 43.7577 36.3721C43.1809 36.8618 42.3919 37.1067 41.3907 37.1067ZM48.788 36.9108C47.9936 36.9108 47.3624 36.7204 46.8945 36.3395C46.4265 35.9477 46.1926 35.2567 46.1926 34.2664V30.2671H44.8051V28.8143H46.1926L46.4048 26.7575H47.9229V28.8143H50.2082V30.2671H47.9229V34.2664C47.9229 34.7125 48.0154 35.0227 48.2004 35.1968C48.3963 35.3601 48.7282 35.4417 49.1961 35.4417H50.1266V36.9108H48.788ZM57.2151 36.9108V26.8881H53.8361V25.4842H62.3081V26.8881H58.9454V36.9108H57.2151ZM64.0253 27.2798C63.6988 27.2798 63.4267 27.1819 63.2091 26.986C63.0023 26.7793 62.8989 26.5235 62.8989 26.2188C62.8989 25.9141 63.0023 25.6638 63.2091 25.4679C63.4267 25.2612 63.6988 25.1578 64.0253 25.1578C64.3517 25.1578 64.6183 25.2612 64.8251 25.4679C65.0428 25.6638 65.1516 25.9141 65.1516 26.2188C65.1516 26.5235 65.0428 26.7793 64.8251 26.986C64.6183 27.1819 64.3517 27.2798 64.0253 27.2798ZM63.1601 36.9108V28.8143H64.8904V36.9108H63.1601ZM66.3584 36.9108V28.8143H67.8928L68.0397 29.9569C68.3009 29.5434 68.6437 29.2169 69.0681 28.9775C69.5034 28.7381 70.004 28.6184 70.5699 28.6184C71.854 28.6184 72.7464 29.1244 73.247 30.1365C73.5408 29.6685 73.9326 29.2985 74.4223 29.0265C74.9229 28.7544 75.4615 28.6184 76.0383 28.6184C77.0504 28.6184 77.8448 28.9231 78.4216 29.5325C78.9983 30.1419 79.2867 31.0506 79.2867 32.2586V36.9108H77.5564V32.4381C77.5564 30.8711 76.9579 30.0875 75.7608 30.0875C75.1514 30.0875 74.6508 30.316 74.259 30.7731C73.8781 31.2302 73.6877 31.8831 73.6877 32.7319V36.9108H71.9574V32.4381C71.9574 30.8711 71.3534 30.0875 70.1455 30.0875C69.5469 30.0875 69.0518 30.316 68.66 30.7731C68.2791 31.2302 68.0887 31.8831 68.0887 32.7319V36.9108H66.3584ZM84.282 37.1067C83.4876 37.1067 82.7802 36.9326 82.1599 36.5843C81.5505 36.2252 81.0717 35.7301 80.7234 35.0989C80.3752 34.4677 80.2011 33.7331 80.2011 32.8952C80.2011 32.0464 80.3698 31.3009 80.7071 30.6588C81.0554 30.0168 81.5342 29.5162 82.1436 29.1571C82.7639 28.7979 83.4821 28.6184 84.2983 28.6184C85.0927 28.6184 85.7838 28.7979 86.3714 29.1571C86.9591 29.5053 87.4161 29.9733 87.7426 30.5609C88.0691 31.1486 88.2323 31.7961 88.2323 32.5034C88.2323 32.6122 88.2269 32.7319 88.216 32.8625C88.216 32.9822 88.2106 33.1183 88.1997 33.2706H81.8987C81.9532 34.0542 82.2089 34.6527 82.666 35.0662C83.1339 35.4689 83.6726 35.6702 84.282 35.6702C84.7717 35.6702 85.1798 35.5614 85.5063 35.3437C85.8436 35.1152 86.0939 34.8105 86.2572 34.4296H87.9875C87.7698 35.1914 87.3345 35.828 86.6816 36.3395C86.0395 36.8509 85.2396 37.1067 84.282 37.1067ZM84.282 30.0385C83.7052 30.0385 83.1938 30.2127 82.7476 30.5609C82.3014 30.8983 82.0293 31.4097 81.9314 32.0953H86.502C86.4694 31.4641 86.2463 30.9636 85.8327 30.5935C85.4192 30.2235 84.9023 30.0385 84.282 30.0385ZM95.9034 36.9108C95.109 36.9108 94.4778 36.7204 94.0099 36.3395C93.5419 35.9477 93.3079 35.2567 93.3079 34.2664V30.2671H91.9204V28.8143H93.3079L93.5202 26.7575H95.0383V28.8143H97.3236V30.2671H95.0383V34.2664C95.0383 34.7125 95.1308 35.0227 95.3158 35.1968C95.5116 35.3601 95.8436 35.4417 96.3115 35.4417H97.2419V36.9108H95.9034ZM101.871 37.1067C101.099 37.1067 100.402 36.9326 99.7819 36.5843C99.1725 36.2252 98.6882 35.7301 98.3291 35.0989C97.97 34.4568 97.7904 33.7114 97.7904 32.8625C97.7904 32.0137 97.97 31.2737 98.3291 30.6425C98.6991 30.0005 99.1943 29.5053 99.8146 29.1571C100.435 28.7979 101.126 28.6184 101.888 28.6184C102.66 28.6184 103.351 28.7979 103.961 29.1571C104.581 29.5053 105.071 30.0005 105.43 30.6425C105.8 31.2737 105.985 32.0137 105.985 32.8625C105.985 33.7114 105.8 34.4568 105.43 35.0989C105.071 35.7301 104.581 36.2252 103.961 36.5843C103.34 36.9326 102.644 37.1067 101.871 37.1067ZM101.871 35.6212C102.285 35.6212 102.666 35.5178 103.014 35.3111C103.373 35.1043 103.662 34.7996 103.879 34.397C104.097 33.9834 104.206 33.472 104.206 32.8625C104.206 32.2531 104.097 31.7471 103.879 31.3444C103.672 30.9309 103.389 30.6208 103.03 30.414C102.682 30.2072 102.301 30.1038 101.888 30.1038C101.474 30.1038 101.088 30.2072 100.729 30.414C100.38 30.6208 100.098 30.9309 99.8799 31.3444C99.6622 31.7471 99.5534 32.2531 99.5534 32.8625C99.5534 33.472 99.6622 33.9834 99.8799 34.397C100.098 34.7996 100.38 35.1043 100.729 35.3111C101.077 35.5178 101.458 35.6212 101.871 35.6212ZM110.402 36.9108V25.4842H114.401C115.294 25.4842 116.034 25.6366 116.621 25.9413C117.209 26.2351 117.644 26.6432 117.927 27.1656C118.221 27.6771 118.368 28.2593 118.368 28.9122C118.368 29.5325 118.226 30.1038 117.943 30.6262C117.671 31.1377 117.241 31.5458 116.654 31.8505C116.066 32.1552 115.315 32.3075 114.401 32.3075H112.132V36.9108H110.402ZM112.132 30.8874H114.32C115.136 30.8874 115.718 30.7133 116.066 30.365C116.425 30.0059 116.605 29.5216 116.605 28.9122C116.605 28.281 116.425 27.7913 116.066 27.4431C115.718 27.084 115.136 26.9044 114.32 26.9044H112.132V30.8874ZM122.537 37.1067C121.765 37.1067 121.068 36.9326 120.448 36.5843C119.838 36.2252 119.354 35.7301 118.995 35.0989C118.636 34.4568 118.456 33.7114 118.456 32.8625C118.456 32.0137 118.636 31.2737 118.995 30.6425C119.365 30.0005 119.86 29.5053 120.481 29.1571C121.101 28.7979 121.792 28.6184 122.554 28.6184C123.326 28.6184 124.017 28.7979 124.627 29.1571C125.247 29.5053 125.737 30.0005 126.096 30.6425C126.466 31.2737 126.651 32.0137 126.651 32.8625C126.651 33.7114 126.466 34.4568 126.096 35.0989C125.737 35.7301 125.247 36.2252 124.627 36.5843C124.006 36.9326 123.31 37.1067 122.537 37.1067ZM122.537 35.6212C122.951 35.6212 123.332 35.5178 123.68 35.3111C124.039 35.1043 124.327 34.7996 124.545 34.397C124.763 33.9834 124.872 33.472 124.872 32.8625C124.872 32.2531 124.763 31.7471 124.545 31.3444C124.338 30.9309 124.055 30.6208 123.696 30.414C123.348 30.2072 122.967 30.1038 122.554 30.1038C122.14 30.1038 121.754 30.2072 121.395 30.414C121.046 30.6208 120.763 30.9309 120.546 31.3444C120.328 31.7471 120.219 32.2531 120.219 32.8625C120.219 33.472 120.328 33.9834 120.546 34.397C120.763 34.7996 121.046 35.1043 121.395 35.3111C121.743 35.5178 122.124 35.6212 122.537 35.6212ZM130.938 37.1067C129.915 37.1067 129.072 36.8564 128.408 36.3558C127.744 35.8552 127.363 35.1914 127.265 34.3643H129.012C129.099 34.7343 129.306 35.0553 129.632 35.3274C129.959 35.5886 130.388 35.7192 130.922 35.7192C131.444 35.7192 131.825 35.6103 132.064 35.3927C132.304 35.1751 132.423 34.9248 132.423 34.6418C132.423 34.2283 132.255 33.9508 131.917 33.8093C131.591 33.657 131.134 33.5209 130.546 33.4012C130.089 33.3033 129.632 33.1727 129.175 33.0094C128.729 32.8462 128.353 32.6177 128.049 32.3239C127.755 32.0191 127.608 31.6111 127.608 31.0996C127.608 30.3922 127.88 29.8046 128.424 29.3366C128.968 28.8578 129.73 28.6184 130.709 28.6184C131.613 28.6184 132.342 28.836 132.897 29.2713C133.463 29.7066 133.795 30.3215 133.893 31.1159H132.228C132.173 30.7677 132.01 30.4956 131.738 30.2997C131.477 30.1038 131.123 30.0059 130.677 30.0059C130.242 30.0059 129.904 30.0984 129.665 30.2834C129.425 30.4575 129.306 30.686 129.306 30.969C129.306 31.2519 129.469 31.475 129.795 31.6383C130.133 31.8015 130.573 31.9484 131.118 32.079C131.662 32.1987 132.162 32.3402 132.619 32.5034C133.087 32.6558 133.463 32.8843 133.746 33.189C134.029 33.4937 134.17 33.9399 134.17 34.5275C134.181 35.2676 133.893 35.8824 133.305 36.3721C132.728 36.8618 131.939 37.1067 130.938 37.1067ZM138.335 36.9108C137.541 36.9108 136.91 36.7204 136.442 36.3395C135.974 35.9477 135.74 35.2567 135.74 34.2664V30.2671H134.352V28.8143H135.74L135.952 26.7575H137.47V28.8143H139.755V30.2671H137.47V34.2664C137.47 34.7125 137.563 35.0227 137.748 35.1968C137.944 35.3601 138.275 35.4417 138.743 35.4417H139.674V36.9108H138.335Z" fill="#091E42"/>
<path d="M19.0898 54.9908H290.91" stroke="#DCDEEC" stroke-width="0.755001"/>
<rect x="19.0898" y="67.0708" width="41.1" height="24.04" rx="12.02" fill="#FFE5E7"/>
<path d="M31.4717 84.0908L29.2006 78.3286V84.0908H27.5336V75.4173H29.7321L32.2448 81.8439L34.7695 75.4173H36.9681V84.0908H35.301V78.2803L33.0058 84.0908H31.4717ZM41.4465 84.2116C39.5741 84.2116 38.1729 82.7378 38.1729 80.8654C38.1729 78.9809 39.5741 77.5193 41.4465 77.5193C43.3189 77.5193 44.7202 78.9809 44.7202 80.8654C44.7202 82.7378 43.3189 84.2116 41.4465 84.2116ZM41.4465 82.7257C42.2801 82.7257 42.9928 82.0613 42.9928 80.8654C42.9928 79.6695 42.2801 79.0172 41.4465 79.0172C40.613 79.0172 39.9003 79.6695 39.9003 80.8654C39.9003 82.0613 40.613 82.7257 41.4465 82.7257ZM47.4709 80.5755V84.0908H45.7918V77.6401H47.338V78.5581C47.8091 77.9179 48.4735 77.5193 49.3191 77.5193C50.6117 77.5193 51.5056 78.3649 51.5056 79.9232V84.0908H49.8386V80.4909C49.8386 79.5366 49.4641 79.0051 48.703 79.0051C48.0386 79.0051 47.4709 79.5366 47.4709 80.5755Z" fill="#DC5172"/>
<path d="M82.3564 84.0908H81.4625V76.2267H78.5512V75.4173H85.2677V76.2267H82.3564V84.0908ZM89.9521 81.5177V77.7246H90.7856V84.0908H90.0004V82.9432C89.6742 83.6801 88.9011 84.2116 87.9709 84.2116C86.6784 84.2116 85.8207 83.4747 85.8207 81.8681V77.7246H86.6663V81.6869C86.6663 82.9794 87.3065 83.4747 88.2005 83.4747C89.2152 83.4747 89.9521 82.6533 89.9521 81.5177ZM95.1177 84.2116C93.3298 84.2116 92.146 82.8707 92.146 80.8533C92.146 78.993 93.3782 77.6038 95.0694 77.6038C96.8814 77.6038 98.0652 79.0655 97.9202 81.107H92.9916C93.0641 82.617 93.8614 83.5472 95.1056 83.5472C96.1686 83.5472 96.9055 82.9553 97.1109 81.9405H97.9444C97.6545 83.3539 96.5794 84.2116 95.1177 84.2116ZM95.0573 78.2561C93.9097 78.2561 93.1003 79.138 92.9916 80.5272H97.0384C96.9659 79.1017 96.229 78.2561 95.0573 78.2561Z" fill="#8F8F8F"/>
<path d="M125.052 84.0908L123.023 76.6495L120.981 84.0908H120.039L117.756 75.4173H118.638L120.51 82.7741L122.54 75.4173H123.506L125.511 82.7982L127.396 75.4173H128.29L126.006 84.0908H125.052ZM131.454 84.2116C129.666 84.2116 128.482 82.8707 128.482 80.8533C128.482 78.993 129.714 77.6038 131.405 77.6038C133.217 77.6038 134.401 79.0655 134.256 81.107H129.328C129.4 82.617 130.197 83.5472 131.442 83.5472C132.505 83.5472 133.242 82.9553 133.447 81.9405H134.28C133.991 83.3539 132.915 84.2116 131.454 84.2116ZM131.393 78.2561C130.246 78.2561 129.436 79.138 129.328 80.5272H133.374C133.302 79.1017 132.565 78.2561 131.393 78.2561ZM135.065 80.9017C135.065 78.9447 136.152 77.6038 137.867 77.6038C138.822 77.6038 139.631 78.1474 140.054 79.0534V75.4173H140.899V84.0908H140.114V82.7499C139.667 83.6801 138.846 84.2116 137.867 84.2116C136.152 84.2116 135.065 82.8586 135.065 80.9017ZM135.922 80.9017C135.922 82.5204 136.744 83.4747 137.988 83.4747C139.22 83.4747 140.066 82.4721 140.066 80.8775C140.066 79.2709 139.196 78.3407 137.988 78.3407C136.744 78.3407 135.922 79.2829 135.922 80.9017Z" fill="#8F8F8F"/>
<path d="M164.597 84.0908H163.703V76.2267H160.791V75.4173H167.508V76.2267H164.597V84.0908ZM169.51 80.3822V84.0908H168.664V75.4173H169.51V78.8964C169.908 78.1353 170.633 77.6038 171.551 77.6038C172.88 77.6038 173.738 78.4494 173.738 79.9594V84.0908H172.892V80.2493C172.892 79.0293 172.336 78.3407 171.297 78.3407C170.307 78.3407 169.51 79.1984 169.51 80.3822ZM179.589 81.5177V77.7246H180.422V84.0908H179.637V82.9432C179.311 83.6801 178.538 84.2116 177.608 84.2116C176.315 84.2116 175.458 83.4747 175.458 81.8681V77.7246H176.303V81.6869C176.303 82.9794 176.943 83.4747 177.837 83.4747C178.852 83.4747 179.589 82.6533 179.589 81.5177Z" fill="#8F8F8F"/>
<path d="M201.554 84.0908H200.648V75.4173H205.625V76.2025H201.554V79.5849H205.058V80.3701H201.554V84.0908ZM207.721 80.6842V84.0908H206.876V77.7246H207.661V79.1742C208.096 78.232 209.038 77.628 210.089 77.628V78.5098C208.748 78.4615 207.721 79.295 207.721 80.6842ZM212.222 76.2509C212.222 76.6253 211.944 76.8911 211.533 76.8911C211.135 76.8911 210.857 76.6253 210.857 76.2509C210.857 75.8885 211.135 75.6227 211.533 75.6227C211.944 75.6227 212.222 75.8885 212.222 76.2509ZM211.968 84.0908H211.123V77.7246H211.968V84.0908Z" fill="#8F8F8F"/>
<path d="M238.845 81.6869C238.845 83.064 237.721 84.2116 235.704 84.2116C233.687 84.2116 232.503 83.0881 232.418 81.4453H233.336C233.421 82.6774 234.194 83.4747 235.692 83.4747C236.924 83.4747 237.89 82.8465 237.89 81.8077C237.89 80.9137 237.383 80.503 236.151 80.2493L235.052 80.0319C233.904 79.8024 232.696 79.2709 232.696 77.7609C232.696 76.3717 233.916 75.2965 235.644 75.2965C237.335 75.2965 238.639 76.3596 238.736 78.0145H237.806C237.745 76.8669 236.9 76.0334 235.656 76.0334C234.327 76.0334 233.614 76.8428 233.614 77.7125C233.614 78.7393 234.484 79.0534 235.45 79.2467L236.55 79.4762C238.011 79.7782 238.845 80.3822 238.845 81.6869ZM244.384 84.0908V82.9311C244.01 83.7284 243.237 84.2116 242.246 84.2116C240.93 84.2116 240.072 83.4747 240.072 82.3271C240.072 81.0829 241.062 80.4305 242.995 80.4305C243.382 80.4305 243.672 80.4547 244.3 80.503V79.9715C244.3 78.9085 243.732 78.2803 242.766 78.2803C241.727 78.2803 241.074 78.9205 241.062 79.9594H240.289C240.326 78.5461 241.304 77.6038 242.754 77.6038C244.239 77.6038 245.109 78.4736 245.109 79.9473V84.0908H244.384ZM240.881 82.3029C240.881 83.0761 241.473 83.5955 242.367 83.5955C243.551 83.5955 244.3 82.8224 244.3 81.6265V81.0587C243.756 81.0104 243.382 80.9983 243.031 80.9983C241.582 80.9983 240.881 81.4211 240.881 82.3029ZM250.126 83.2814V84.0304C249.8 84.1633 249.522 84.2116 249.208 84.2116C248.157 84.2116 247.348 83.668 247.348 82.2909V78.4373H245.85V77.7246H247.348V75.8401H248.193V77.7246H250.187V78.4373H248.193V82.1097C248.193 83.1002 248.677 83.4385 249.377 83.4385C249.643 83.4385 249.861 83.3901 250.126 83.2814Z" fill="#8F8F8F"/>
<path d="M275.965 81.6869C275.965 83.064 274.841 84.2116 272.824 84.2116C270.807 84.2116 269.623 83.0881 269.538 81.4453H270.456C270.541 82.6774 271.314 83.4747 272.812 83.4747C274.044 83.4747 275.011 82.8465 275.011 81.8077C275.011 80.9137 274.503 80.503 273.271 80.2493L272.172 80.0319C271.024 79.8024 269.816 79.2709 269.816 77.7609C269.816 76.3717 271.036 75.2965 272.764 75.2965C274.455 75.2965 275.76 76.3596 275.856 78.0145H274.926C274.866 76.8669 274.02 76.0334 272.776 76.0334C271.447 76.0334 270.734 76.8428 270.734 77.7125C270.734 78.7393 271.604 79.0534 272.57 79.2467L273.67 79.4762C275.131 79.7782 275.965 80.3822 275.965 81.6869ZM281.485 81.5177V77.7246H282.318V84.0908H281.533V82.9432C281.207 83.6801 280.434 84.2116 279.503 84.2116C278.211 84.2116 277.353 83.4747 277.353 81.8681V77.7246H278.199V81.6869C278.199 82.9794 278.839 83.4747 279.733 83.4747C280.748 83.4747 281.485 82.6533 281.485 81.5177ZM284.995 80.3822V84.0908H284.15V77.7246H284.935V78.9205C285.346 78.1353 286.119 77.6038 287.037 77.6038C288.366 77.6038 289.223 78.4494 289.223 79.9594V84.0908H288.378V80.2493C288.378 79.0293 287.822 78.3407 286.783 78.3407C285.793 78.3407 284.995 79.1984 284.995 80.3822Z" fill="#8F8F8F"/>
<path fill-rule="evenodd" clip-rule="evenodd" d="M28.5274 188.506C33.7395 188.506 37.9649 192.731 37.9649 197.943L37.9649 216.063C37.9649 221.276 33.7395 225.501 28.5274 225.501C23.3152 225.501 19.0898 221.276 19.0898 216.063L19.0898 197.943C19.0898 192.731 23.3152 188.506 28.5274 188.506Z" fill="#7551DC"/>
<path fill-rule="evenodd" clip-rule="evenodd" d="M64.1787 175.671C69.3909 175.671 73.6162 179.896 73.6162 185.108L73.6162 216.063C73.6162 221.276 69.3909 225.501 64.1787 225.501C58.9665 225.501 54.7412 221.276 54.7412 216.063L54.7412 185.108C54.7412 179.896 58.9665 175.671 64.1787 175.671Z" fill="#7551DC"/>
<path fill-rule="evenodd" clip-rule="evenodd" d="M100.134 129.897C105.346 129.851 109.608 134.039 109.654 139.251L110.029 215.897C110.075 221.109 105.887 225.371 100.675 225.417C95.4631 225.464 91.2005 221.276 91.1544 216.064L90.7802 139.418C90.7341 134.206 94.9218 129.944 100.134 129.897Z" fill="#7551DC"/>
<path fill-rule="evenodd" clip-rule="evenodd" d="M136.631 150.001C141.843 150.001 146.068 154.226 146.068 159.438L146.068 216.063C146.068 221.276 141.843 225.501 136.631 225.501C131.419 225.501 127.193 221.276 127.193 216.063L127.193 159.438C127.193 154.226 131.419 150.001 136.631 150.001Z" fill="#7551DC"/>
<path fill-rule="evenodd" clip-rule="evenodd" d="M172.282 170.386C177.494 170.386 181.72 174.611 181.72 179.823L181.72 216.063C181.72 221.276 177.494 225.501 172.282 225.501C167.07 225.501 162.845 221.276 162.845 216.063L162.845 179.823C162.845 174.611 167.07 170.386 172.282 170.386Z" fill="#7551DC"/>
<path fill-rule="evenodd" clip-rule="evenodd" d="M207.933 158.937C213.145 158.868 217.426 163.037 217.495 168.249L218.127 215.814C218.196 221.025 214.027 225.306 208.815 225.376C203.603 225.445 199.322 221.276 199.253 216.064L198.621 168.499C198.552 163.287 202.721 159.006 207.933 158.937Z" fill="#7551DC"/>
<path fill-rule="evenodd" clip-rule="evenodd" d="M244.466 133.254C249.677 133.177 253.964 137.34 254.041 142.551L255.12 215.787C255.197 220.998 251.034 225.285 245.822 225.362C240.611 225.439 236.324 221.276 236.247 216.064L235.168 142.829C235.092 137.618 239.254 133.331 244.466 133.254Z" fill="#7551DC"/>
<path fill-rule="evenodd" clip-rule="evenodd" d="M281.473 164.346C286.685 164.346 290.91 168.571 290.91 173.783L290.91 216.063C290.91 221.276 286.685 225.501 281.473 225.501C276.26 225.501 272.035 221.276 272.035 216.063L272.035 173.783C272.035 168.571 276.26 164.346 281.473 164.346Z" fill="#7551DC"/>
<rect x="57.6729" y="103.731" width="85.1" height="24.04" rx="7.55001" fill="#DAFFE9"/>
<path d="M70.3246 120.751L68.0536 114.989V120.751H66.3865V112.078H68.5851L71.0977 118.504L73.6225 112.078H75.821V120.751H74.154V114.941L71.8588 120.751H70.3246ZM80.2995 120.872C78.4271 120.872 77.0258 119.398 77.0258 117.526C77.0258 115.641 78.4271 114.18 80.2995 114.18C82.1719 114.18 83.5732 115.641 83.5732 117.526C83.5732 119.398 82.1719 120.872 80.2995 120.872ZM80.2995 119.386C81.133 119.386 81.8457 118.722 81.8457 117.526C81.8457 116.33 81.133 115.678 80.2995 115.678C79.466 115.678 78.7533 116.33 78.7533 117.526C78.7533 118.722 79.466 119.386 80.2995 119.386ZM90.0928 118.686C90.0928 120.039 89.066 120.872 87.2298 120.872C85.3937 120.872 84.3669 119.99 84.234 118.553H85.8406C85.8527 119.217 86.4205 119.64 87.254 119.64C87.9063 119.64 88.4016 119.435 88.4016 118.975C88.4016 118.565 88.1358 118.396 87.5198 118.275L86.3601 118.057C85.2004 117.852 84.4998 117.212 84.4998 116.209C84.4998 115.013 85.5266 114.18 87.1332 114.18C88.7519 114.18 89.8633 115.037 89.9841 116.427H88.3774C88.317 115.798 87.8459 115.412 87.1332 115.412C86.5171 115.412 86.1064 115.641 86.1064 116.052C86.1064 116.439 86.3722 116.596 86.952 116.704L88.1962 116.934C89.4526 117.176 90.0928 117.755 90.0928 118.686ZM95.12 119.12V120.582C94.7093 120.787 94.3227 120.872 93.8274 120.872C92.4986 120.872 91.6651 120.111 91.6651 118.661V115.738H90.3605V114.301H91.6651V112.392H93.3321V114.301H95.1804V115.738H93.3321V118.275C93.3321 119.024 93.6704 119.326 94.2744 119.326C94.5885 119.326 94.8784 119.253 95.12 119.12ZM104.674 120.751L104.021 118.891H100.651L99.9865 120.751H98.1383L101.4 112.078H103.405L106.643 120.751H104.674ZM102.354 114.083L101.17 117.429H103.514L102.354 114.083ZM109.907 120.872C108.046 120.872 106.766 119.495 106.766 117.526C106.766 115.593 108.095 114.18 109.907 114.18C111.586 114.18 112.83 115.315 113.035 117.055H111.272C111.187 116.197 110.668 115.666 109.907 115.666C109.037 115.666 108.481 116.378 108.481 117.526C108.481 118.686 109.025 119.386 109.907 119.386C110.68 119.386 111.175 118.879 111.272 117.997H113.035C112.842 119.773 111.634 120.872 109.907 120.872ZM118.124 119.12V120.582C117.713 120.787 117.327 120.872 116.831 120.872C115.503 120.872 114.669 120.111 114.669 118.661V115.738H113.364V114.301H114.669V112.392H116.336V114.301H118.184V115.738H116.336V118.275C116.336 119.024 116.674 119.326 117.278 119.326C117.592 119.326 117.882 119.253 118.124 119.12ZM121.154 112.803C121.154 113.37 120.695 113.793 120.031 113.793C119.379 113.793 118.92 113.37 118.92 112.803C118.92 112.211 119.379 111.788 120.031 111.788C120.695 111.788 121.154 112.211 121.154 112.803ZM120.889 120.751H119.21V114.301H120.889V120.751ZM128.193 114.301L125.826 120.751H123.99L121.61 114.301H123.422L124.956 118.843L126.502 114.301H128.193ZM131.509 120.86C129.576 120.86 128.283 119.519 128.283 117.502C128.283 115.581 129.624 114.18 131.485 114.18C133.526 114.18 134.879 115.835 134.577 117.937H129.999C130.107 118.988 130.615 119.567 131.472 119.567C132.209 119.567 132.705 119.205 132.898 118.565H134.565C134.203 120.026 133.079 120.86 131.509 120.86ZM131.448 115.412C130.663 115.412 130.168 115.919 130.023 116.874H132.801C132.753 115.98 132.246 115.412 131.448 115.412Z" fill="#0E803B"/>
<path d="M21.7474 251.581H20.9139V244.14H19.3073V243.415H21.7474V251.581ZM28.3753 250.832V251.581H23.4467V251.098L26.056 248.15C27.0465 247.027 27.4089 246.423 27.4089 245.638C27.4089 244.719 26.7324 244.043 25.7781 244.043C24.7876 244.043 24.0869 244.732 24.0869 245.746H23.2655C23.2655 244.321 24.3164 243.294 25.8144 243.294C27.2398 243.294 28.2908 244.248 28.2908 245.565C28.2908 246.447 27.9404 247.111 26.6841 248.513L24.6909 250.832H28.3753ZM33.784 251.581V250.421C33.4096 251.219 32.6364 251.702 31.6459 251.702C30.3292 251.702 29.4715 250.965 29.4715 249.817C29.4715 248.573 30.462 247.921 32.3948 247.921C32.7814 247.921 33.0713 247.945 33.6995 247.993V247.462C33.6995 246.399 33.1317 245.77 32.1653 245.77C31.1264 245.77 30.4741 246.411 30.462 247.45H29.6889C29.7252 246.036 30.7036 245.094 32.1532 245.094C33.6391 245.094 34.5088 245.964 34.5088 247.437V251.581H33.784ZM30.2808 249.793C30.2808 250.566 30.8728 251.086 31.7667 251.086C32.9505 251.086 33.6995 250.313 33.6995 249.117V248.549C33.1559 248.501 32.7814 248.488 32.4311 248.488C30.9815 248.488 30.2808 248.911 30.2808 249.793Z" fill="#8F8F8F"/>
<path d="M61.209 251.69C59.5903 251.69 58.479 250.735 58.4427 249.322H59.2642C59.3125 250.349 60.0735 251.001 61.209 251.001C62.3808 251.001 63.0935 250.361 63.0935 249.334C63.0935 248.356 62.2962 247.727 61.0399 247.727H60.2306V247.027H61.0158C62.0184 247.027 62.719 246.387 62.719 245.468C62.719 244.587 62.0667 243.983 61.1366 243.983C60.1702 243.983 59.5299 244.587 59.4816 245.529H58.6722C58.7085 244.248 59.7715 243.294 61.1607 243.294C62.6103 243.294 63.5888 244.176 63.5888 245.432C63.5888 246.278 63.0814 246.954 62.1875 247.329C63.311 247.607 63.9633 248.331 63.9633 249.322C63.9633 250.723 62.8519 251.69 61.209 251.69ZM69.5233 251.581V250.421C69.1488 251.219 68.3757 251.702 67.3851 251.702C66.0684 251.702 65.2107 250.965 65.2107 249.817C65.2107 248.573 66.2013 247.921 68.1341 247.921C68.5207 247.921 68.8106 247.945 69.4387 247.993V247.462C69.4387 246.399 68.871 245.77 67.9046 245.77C66.8657 245.77 66.2134 246.411 66.2013 247.45H65.4282C65.4644 246.036 66.4429 245.094 67.8925 245.094C69.3783 245.094 70.2481 245.964 70.2481 247.437V251.581H69.5233ZM66.0201 249.793C66.0201 250.566 66.612 251.086 67.5059 251.086C68.6898 251.086 69.4387 250.313 69.4387 249.117V248.549C68.8951 248.501 68.5207 248.488 68.1703 248.488C66.7207 248.488 66.0201 248.911 66.0201 249.793Z" fill="#8F8F8F"/>
<path d="M96.7526 251.69C95.1218 251.69 93.9138 250.518 93.9138 249.02C93.9138 247.957 94.3486 247.317 94.9889 246.519L97.4532 243.415H98.4075L95.9553 246.519C96.2935 246.399 96.6197 246.338 96.9217 246.338C98.4438 246.338 99.6034 247.389 99.6034 248.996C99.6034 250.518 98.3954 251.69 96.7526 251.69ZM96.7646 250.989C97.8881 250.989 98.7337 250.155 98.7337 249.02C98.7337 247.8 97.8881 246.991 96.7646 246.991C95.6291 246.991 94.7835 247.691 94.7835 248.996C94.7835 250.155 95.6291 250.989 96.7646 250.989ZM104.881 251.581V250.421C104.507 251.219 103.734 251.702 102.743 251.702C101.427 251.702 100.569 250.965 100.569 249.817C100.569 248.573 101.559 247.921 103.492 247.921C103.879 247.921 104.169 247.945 104.797 247.993V247.462C104.797 246.399 104.229 245.77 103.263 245.77C102.224 245.77 101.572 246.411 101.559 247.45H100.786C100.823 246.036 101.801 245.094 103.251 245.094C104.737 245.094 105.606 245.964 105.606 247.437V251.581H104.881ZM101.378 249.793C101.378 250.566 101.97 251.086 102.864 251.086C104.048 251.086 104.797 250.313 104.797 249.117V248.549C104.253 248.501 103.879 248.488 103.529 248.488C102.079 248.488 101.378 248.911 101.378 249.793Z" fill="#8F8F8F"/>
<path d="M132.453 243.306C134.084 243.306 135.292 244.478 135.292 245.976C135.292 246.978 134.893 247.607 134.205 248.476L131.752 251.581H130.786L133.238 248.464C132.912 248.597 132.574 248.645 132.272 248.645C130.75 248.645 129.602 247.595 129.602 246C129.602 244.478 130.81 243.306 132.453 243.306ZM132.441 244.007C131.293 244.007 130.472 244.84 130.472 245.976C130.472 247.196 131.293 248.005 132.441 248.005C133.564 248.005 134.422 247.305 134.422 246C134.422 244.84 133.564 244.007 132.441 244.007ZM140.57 251.581V250.421C140.195 251.219 139.422 251.702 138.432 251.702C137.115 251.702 136.257 250.965 136.257 249.817C136.257 248.573 137.248 247.921 139.181 247.921C139.567 247.921 139.857 247.945 140.485 247.993V247.462C140.485 246.399 139.918 245.77 138.951 245.77C137.912 245.77 137.26 246.411 137.248 247.45H136.475C136.511 246.036 137.49 245.094 138.939 245.094C140.425 245.094 141.295 245.964 141.295 247.437V251.581H140.57ZM137.067 249.793C137.067 250.566 137.659 251.086 138.553 251.086C139.736 251.086 140.485 250.313 140.485 249.117V248.549C139.942 248.501 139.567 248.488 139.217 248.488C137.767 248.488 137.067 248.911 137.067 249.793Z" fill="#8F8F8F"/>
<path d="M167.501 251.581H166.668V244.14H165.061V243.415H167.501V251.581ZM174.129 250.832V251.581H169.201V251.098L171.81 248.15C172.8 247.027 173.163 246.423 173.163 245.638C173.163 244.719 172.486 244.043 171.532 244.043C170.541 244.043 169.841 244.732 169.841 245.746H169.019C169.019 244.321 170.07 243.294 171.568 243.294C172.994 243.294 174.045 244.248 174.045 245.565C174.045 246.447 173.694 247.111 172.438 248.513L170.445 250.832H174.129ZM181.459 248.392C181.459 250.361 180.359 251.702 178.668 251.702C177.714 251.702 176.905 251.182 176.47 250.276V253.912H175.624V245.215H176.409V246.592C176.844 245.65 177.69 245.094 178.668 245.094C180.359 245.094 181.459 246.447 181.459 248.392ZM180.601 248.392C180.601 246.785 179.767 245.831 178.523 245.831C177.339 245.831 176.458 246.773 176.458 248.392C176.458 249.974 177.315 250.965 178.523 250.965C179.767 250.965 180.601 250.023 180.601 248.392Z" fill="#8F8F8F"/>
<path d="M207.964 251.69C206.345 251.69 205.234 250.735 205.198 249.322H206.019C206.067 250.349 206.828 251.001 207.964 251.001C209.136 251.001 209.848 250.361 209.848 249.334C209.848 248.356 209.051 247.727 207.795 247.727H206.985V247.027H207.771C208.773 247.027 209.474 246.387 209.474 245.468C209.474 244.587 208.822 243.983 207.891 243.983C206.925 243.983 206.285 244.587 206.236 245.529H205.427C205.463 244.248 206.526 243.294 207.916 243.294C209.365 243.294 210.344 244.176 210.344 245.432C210.344 246.278 209.836 246.954 208.942 247.329C210.066 247.607 210.718 248.331 210.718 249.322C210.718 250.723 209.607 251.69 207.964 251.69ZM218.199 248.392C218.199 250.361 217.1 251.702 215.408 251.702C214.454 251.702 213.645 251.182 213.21 250.276V253.912H212.364V245.215H213.149V246.592C213.584 245.65 214.43 245.094 215.408 245.094C217.1 245.094 218.199 246.447 218.199 248.392ZM217.341 248.392C217.341 246.785 216.508 245.831 215.263 245.831C214.08 245.831 213.198 246.773 213.198 248.392C213.198 249.974 214.055 250.965 215.263 250.965C216.508 250.965 217.341 250.023 217.341 248.392Z" fill="#8F8F8F"/>
<path d="M244.507 251.69C242.877 251.69 241.669 250.518 241.669 249.02C241.669 247.957 242.104 247.317 242.744 246.519L245.208 243.415H246.162L243.71 246.519C244.048 246.399 244.375 246.338 244.677 246.338C246.199 246.338 247.358 247.389 247.358 248.996C247.358 250.518 246.15 251.69 244.507 251.69ZM244.52 250.989C245.643 250.989 246.489 250.155 246.489 249.02C246.489 247.8 245.643 246.991 244.52 246.991C243.384 246.991 242.538 247.691 242.538 248.996C242.538 250.155 243.384 250.989 244.52 250.989ZM254.557 248.392C254.557 250.361 253.458 251.702 251.767 251.702C250.812 251.702 250.003 251.182 249.568 250.276V253.912H248.722V245.215H249.508V246.592C249.943 245.65 250.788 245.094 251.767 245.094C253.458 245.094 254.557 246.447 254.557 248.392ZM253.699 248.392C253.699 246.785 252.866 245.831 251.622 245.831C250.438 245.831 249.556 246.773 249.556 248.392C249.556 249.974 250.414 250.965 251.622 250.965C252.866 250.965 253.699 250.023 253.699 248.392Z" fill="#8F8F8F"/>
<path d="M280.208 243.306C281.839 243.306 283.047 244.478 283.047 245.976C283.047 246.978 282.648 247.607 281.96 248.476L279.507 251.581H278.541L280.993 248.464C280.667 248.597 280.329 248.645 280.027 248.645C278.505 248.645 277.357 247.595 277.357 246C277.357 244.478 278.565 243.306 280.208 243.306ZM280.196 244.007C279.048 244.007 278.227 244.84 278.227 245.976C278.227 247.196 279.048 248.005 280.196 248.005C281.319 248.005 282.177 247.305 282.177 246C282.177 244.84 281.319 244.007 280.196 244.007ZM290.246 248.392C290.246 250.361 289.146 251.702 287.455 251.702C286.501 251.702 285.691 251.182 285.257 250.276V253.912H284.411V245.215H285.196V246.592C285.631 245.65 286.477 245.094 287.455 245.094C289.146 245.094 290.246 246.447 290.246 248.392ZM289.388 248.392C289.388 246.785 288.554 245.831 287.31 245.831C286.126 245.831 285.244 246.773 285.244 248.392C285.244 249.974 286.102 250.965 287.31 250.965C288.554 250.965 289.388 250.023 289.388 248.392Z" fill="#8F8F8F"/>
</svg>
