<svg width="244" height="224" viewBox="0 0 244 224" fill="none" xmlns="http://www.w3.org/2000/svg">
<rect x="0.658203" y="0.708252" width="195.918" height="188.939" rx="14.8767" fill="white"/>
<path d="M28.3495 41.3638V31.5638H34.3135V32.5298H29.5255V35.9738H33.5995V36.9258H29.5255V41.3638H28.3495ZM38.2012 41.5318C37.5479 41.5318 36.9599 41.3825 36.4372 41.0838C35.9145 40.7852 35.4992 40.3652 35.1912 39.8238C34.8925 39.2732 34.7432 38.6292 34.7432 37.8918C34.7432 37.1545 34.8972 36.5152 35.2052 35.9738C35.5132 35.4232 35.9285 34.9985 36.4512 34.6998C36.9832 34.4012 37.5759 34.2518 38.2292 34.2518C38.8825 34.2518 39.4705 34.4012 39.9932 34.6998C40.5159 34.9985 40.9265 35.4232 41.2252 35.9738C41.5332 36.5152 41.6872 37.1545 41.6872 37.8918C41.6872 38.6292 41.5332 39.2732 41.2252 39.8238C40.9172 40.3652 40.4972 40.7852 39.9652 41.0838C39.4425 41.3825 38.8545 41.5318 38.2012 41.5318ZM38.2012 40.5238C38.6025 40.5238 38.9759 40.4258 39.3212 40.2298C39.6665 40.0338 39.9465 39.7398 40.1612 39.3478C40.3759 38.9558 40.4832 38.4705 40.4832 37.8918C40.4832 37.3132 40.3759 36.8278 40.1612 36.4358C39.9559 36.0438 39.6805 35.7498 39.3352 35.5538C38.9899 35.3578 38.6212 35.2598 38.2292 35.2598C37.8279 35.2598 37.4545 35.3578 37.1092 35.5538C36.7639 35.7498 36.4839 36.0438 36.2692 36.4358C36.0545 36.8278 35.9472 37.3132 35.9472 37.8918C35.9472 38.4705 36.0545 38.9558 36.2692 39.3478C36.4839 39.7398 36.7592 40.0338 37.0952 40.2298C37.4405 40.4258 37.8092 40.5238 38.2012 40.5238ZM42.9024 41.3638V31.2838H44.0784V41.3638H42.9024ZM45.5859 41.3638V31.2838H46.7619V41.3638H45.5859ZM51.4334 41.5318C50.7801 41.5318 50.1921 41.3825 49.6694 41.0838C49.1467 40.7852 48.7314 40.3652 48.4234 39.8238C48.1247 39.2732 47.9754 38.6292 47.9754 37.8918C47.9754 37.1545 48.1294 36.5152 48.4374 35.9738C48.7454 35.4232 49.1607 34.9985 49.6834 34.6998C50.2154 34.4012 50.8081 34.2518 51.4614 34.2518C52.1147 34.2518 52.7027 34.4012 53.2254 34.6998C53.7481 34.9985 54.1587 35.4232 54.4574 35.9738C54.7654 36.5152 54.9194 37.1545 54.9194 37.8918C54.9194 38.6292 54.7654 39.2732 54.4574 39.8238C54.1494 40.3652 53.7294 40.7852 53.1974 41.0838C52.6747 41.3825 52.0867 41.5318 51.4334 41.5318ZM51.4334 40.5238C51.8347 40.5238 52.2081 40.4258 52.5534 40.2298C52.8987 40.0338 53.1787 39.7398 53.3934 39.3478C53.6081 38.9558 53.7154 38.4705 53.7154 37.8918C53.7154 37.3132 53.6081 36.8278 53.3934 36.4358C53.1881 36.0438 52.9127 35.7498 52.5674 35.5538C52.2221 35.3578 51.8534 35.2598 51.4614 35.2598C51.0601 35.2598 50.6867 35.3578 50.3414 35.5538C49.9961 35.7498 49.7161 36.0438 49.5014 36.4358C49.2867 36.8278 49.1794 37.3132 49.1794 37.8918C49.1794 38.4705 49.2867 38.9558 49.5014 39.3478C49.7161 39.7398 49.9914 40.0338 50.3274 40.2298C50.6727 40.4258 51.0414 40.5238 51.4334 40.5238ZM57.2748 41.3638L55.2448 34.4198H56.4208L57.8908 39.8658L59.5148 34.4198H60.8448L62.4828 39.8658L63.9388 34.4198H65.1288L63.0988 41.3638H61.8948L60.1868 35.6378L58.4788 41.3638H57.2748ZM68.8717 41.5318C68.209 41.5318 67.621 41.3825 67.1077 41.0838C66.5944 40.7758 66.1884 40.3512 65.8897 39.8098C65.6004 39.2685 65.4557 38.6292 65.4557 37.8918C65.4557 37.1638 65.6004 36.5292 65.8897 35.9878C66.179 35.4372 66.5804 35.0125 67.0937 34.7138C67.6164 34.4058 68.2184 34.2518 68.8997 34.2518C69.5717 34.2518 70.1504 34.4058 70.6357 34.7138C71.1304 35.0125 71.5084 35.4092 71.7697 35.9038C72.031 36.3985 72.1617 36.9305 72.1617 37.4998C72.1617 37.6025 72.157 37.7052 72.1477 37.8078C72.1477 37.9105 72.1477 38.0272 72.1477 38.1578H66.6177C66.6457 38.6898 66.767 39.1332 66.9817 39.4878C67.2057 39.8332 67.481 40.0945 67.8077 40.2718C68.1437 40.4492 68.4984 40.5378 68.8717 40.5378C69.357 40.5378 69.763 40.4258 70.0897 40.2018C70.4164 39.9778 70.6544 39.6745 70.8037 39.2918H71.9657C71.779 39.9358 71.4197 40.4725 70.8877 40.9018C70.365 41.3218 69.693 41.5318 68.8717 41.5318ZM68.8717 35.2458C68.3117 35.2458 67.8124 35.4185 67.3737 35.7638C66.9444 36.0998 66.697 36.5945 66.6317 37.2478H70.9997C70.9717 36.6225 70.757 36.1325 70.3557 35.7778C69.9544 35.4232 69.4597 35.2458 68.8717 35.2458ZM73.3004 41.3638V34.4198H74.3644L74.4624 35.7498C74.6771 35.2925 75.0037 34.9285 75.4424 34.6578C75.8811 34.3872 76.4224 34.2518 77.0664 34.2518V35.4838H76.7444C76.3337 35.4838 75.9557 35.5585 75.6104 35.7078C75.2651 35.8478 74.9897 36.0905 74.7844 36.4358C74.5791 36.7812 74.4764 37.2572 74.4764 37.8638V41.3638H73.3004ZM85.5354 41.5318C84.6208 41.5318 83.8181 41.3218 83.1274 40.9018C82.4368 40.4725 81.9001 39.8798 81.5174 39.1238C81.1348 38.3585 80.9434 37.4765 80.9434 36.4778C80.9434 35.4792 81.1348 34.5972 81.5174 33.8318C81.9094 33.0665 82.4601 32.4692 83.1694 32.0398C83.8881 31.6105 84.7328 31.3958 85.7034 31.3958C86.8048 31.3958 87.7194 31.6618 88.4474 32.1938C89.1848 32.7258 89.6608 33.4585 89.8754 34.3918H88.5174C88.3868 33.8038 88.0741 33.3372 87.5794 32.9918C87.0941 32.6465 86.4688 32.4738 85.7034 32.4738C84.9848 32.4738 84.3594 32.6372 83.8274 32.9638C83.2954 33.2812 82.8801 33.7385 82.5814 34.3358C82.2921 34.9332 82.1474 35.6472 82.1474 36.4778C82.1474 37.3085 82.2921 38.0225 82.5814 38.6198C82.8708 39.2172 83.2721 39.6792 83.7854 40.0058C84.2988 40.3232 84.8961 40.4818 85.5774 40.4818C86.6228 40.4818 87.4114 40.1785 87.9434 39.5718C88.4754 38.9558 88.7788 38.1158 88.8534 37.0518H86.0254V36.1278H90.0574V41.3638H88.9794L88.8814 39.7538C88.5268 40.3232 88.0928 40.7618 87.5794 41.0698C87.0661 41.3778 86.3848 41.5318 85.5354 41.5318ZM91.4271 41.3638V34.4198H92.4911L92.5891 35.7498C92.8038 35.2925 93.1305 34.9285 93.5691 34.6578C94.0078 34.3872 94.5491 34.2518 95.1931 34.2518V35.4838H94.8711C94.4605 35.4838 94.0825 35.5585 93.7371 35.7078C93.3918 35.8478 93.1165 36.0905 92.9111 36.4358C92.7058 36.7812 92.6031 37.2572 92.6031 37.8638V41.3638H91.4271ZM98.9973 41.5318C98.344 41.5318 97.756 41.3825 97.2333 41.0838C96.7106 40.7852 96.2953 40.3652 95.9873 39.8238C95.6886 39.2732 95.5393 38.6292 95.5393 37.8918C95.5393 37.1545 95.6933 36.5152 96.0013 35.9738C96.3093 35.4232 96.7246 34.9985 97.2473 34.6998C97.7793 34.4012 98.372 34.2518 99.0253 34.2518C99.6786 34.2518 100.267 34.4012 100.789 34.6998C101.312 34.9985 101.723 35.4232 102.021 35.9738C102.329 36.5152 102.483 37.1545 102.483 37.8918C102.483 38.6292 102.329 39.2732 102.021 39.8238C101.713 40.3652 101.293 40.7852 100.761 41.0838C100.239 41.3825 99.6506 41.5318 98.9973 41.5318ZM98.9973 40.5238C99.3986 40.5238 99.772 40.4258 100.117 40.2298C100.463 40.0338 100.743 39.7398 100.957 39.3478C101.172 38.9558 101.279 38.4705 101.279 37.8918C101.279 37.3132 101.172 36.8278 100.957 36.4358C100.752 36.0438 100.477 35.7498 100.131 35.5538C99.786 35.3578 99.4173 35.2598 99.0253 35.2598C98.624 35.2598 98.2506 35.3578 97.9053 35.5538C97.56 35.7498 97.28 36.0438 97.0653 36.4358C96.8506 36.8278 96.7433 37.3132 96.7433 37.8918C96.7433 38.4705 96.8506 38.9558 97.0653 39.3478C97.28 39.7398 97.5553 40.0338 97.8913 40.2298C98.2366 40.4258 98.6053 40.5238 98.9973 40.5238ZM104.839 41.3638L102.809 34.4198H103.985L105.455 39.8658L107.079 34.4198H108.409L110.047 39.8658L111.503 34.4198H112.693L110.663 41.3638H109.459L107.751 35.6378L106.043 41.3638H104.839ZM116.317 41.3638C115.683 41.3638 115.183 41.2098 114.819 40.9018C114.455 40.5938 114.273 40.0385 114.273 39.2358V35.4138H113.069V34.4198H114.273L114.427 32.7538H115.449V34.4198H117.493V35.4138H115.449V39.2358C115.449 39.6745 115.538 39.9732 115.715 40.1318C115.893 40.2812 116.205 40.3558 116.653 40.3558H117.381V41.3638H116.317ZM118.567 41.3638V31.2838H119.743V35.6098C119.977 35.1805 120.308 34.8492 120.737 34.6158C121.167 34.3732 121.633 34.2518 122.137 34.2518C122.94 34.2518 123.584 34.5038 124.069 35.0078C124.555 35.5025 124.797 36.2678 124.797 37.3038V41.3638H123.635V37.4298C123.635 35.9832 123.052 35.2598 121.885 35.2598C121.279 35.2598 120.77 35.4792 120.359 35.9178C119.949 36.3472 119.743 36.9632 119.743 37.7658V41.3638H118.567Z" fill="#9E9E9E"/>
<path d="M28.8947 72.6949V70.5867C30.1523 69.588 31.3544 68.5801 32.501 67.5629C33.6476 66.5458 34.6647 65.5471 35.5524 64.5669C36.4586 63.5683 37.1707 62.5974 37.6885 61.6542C38.2063 60.6925 38.4652 59.7678 38.4652 58.8801C38.4652 58.2883 38.3635 57.7335 38.1601 57.2157C37.9566 56.6793 37.6238 56.254 37.1614 55.9396C36.6991 55.6067 36.0795 55.4403 35.3028 55.4403C34.1377 55.4403 33.2592 55.8101 32.6674 56.5499C32.0941 57.2896 31.8167 58.1773 31.8352 59.213H28.9779C28.9964 57.8445 29.2831 56.6978 29.8379 55.7732C30.4112 54.8485 31.1694 54.1457 32.1126 53.6649C33.0743 53.184 34.1562 52.9436 35.3583 52.9436C37.1891 52.9436 38.6502 53.4614 39.7413 54.4971C40.8509 55.5142 41.4057 56.9383 41.4057 58.7691C41.4057 59.8603 41.1376 60.9422 40.6012 62.0148C40.0834 63.0874 39.3992 64.1231 38.5484 65.1218C37.7162 66.1019 36.8193 67.0266 35.8576 67.8958C34.8959 68.765 33.9805 69.551 33.1113 70.2538H41.9883V72.6949H28.8947ZM51.0443 73.0278C49.2874 73.0278 47.7709 72.6117 46.4948 71.7795C45.2373 70.9288 44.2663 69.7544 43.5821 68.2564C42.9163 66.74 42.5834 64.983 42.5834 62.9857C42.5834 60.9884 42.9163 59.2407 43.5821 57.7427C44.2663 56.2262 45.2373 55.0519 46.4948 54.2197C47.7709 53.369 49.2874 52.9436 51.0443 52.9436C52.8012 52.9436 54.3084 53.369 55.566 54.2197C56.8236 55.0519 57.7853 56.2262 58.4511 57.7427C59.1353 59.2407 59.4775 60.9884 59.4775 62.9857C59.4775 64.983 59.1353 66.74 58.4511 68.2564C57.7853 69.7544 56.8236 70.9288 55.566 71.7795C54.3084 72.6117 52.8012 73.0278 51.0443 73.0278ZM51.0443 70.3925C52.0984 70.3925 53.0324 70.0966 53.8461 69.5048C54.6783 68.913 55.3256 68.0623 55.7879 66.9526C56.2503 65.843 56.4815 64.5207 56.4815 62.9857C56.4815 61.4507 56.2503 60.1284 55.7879 59.0188C55.3256 57.9092 54.6783 57.0585 53.8461 56.4667C53.0324 55.8749 52.0984 55.579 51.0443 55.579C49.9717 55.579 49.0285 55.8749 48.2148 56.4667C47.401 57.0585 46.763 57.9092 46.3006 59.0188C45.8383 60.1284 45.6071 61.4507 45.6071 62.9857C45.6071 64.5207 45.8383 65.843 46.3006 66.9526C46.763 68.0623 47.401 68.913 48.2148 69.5048C49.0285 70.0966 49.9717 70.3925 51.0443 70.3925ZM58.5031 75.9683L60.112 69.4216H63.0248L60.4726 75.9683H58.5031ZM71.3775 73.0278C69.9535 73.0278 68.7514 72.7597 67.7713 72.2234C66.7911 71.687 65.9959 70.975 65.3856 70.0873C64.7938 69.1996 64.3684 68.201 64.1095 67.0913C63.8506 65.9817 63.7211 64.8443 63.7211 63.6792C63.7211 61.534 64.017 59.6568 64.6088 58.0479C65.2191 56.4389 66.0883 55.1906 67.2164 54.3029C68.3446 53.3967 69.7131 52.9436 71.3221 52.9436C72.5981 52.9436 73.6893 53.1933 74.5955 53.6926C75.5016 54.1919 76.2044 54.8577 76.7037 55.6899C77.2216 56.5221 77.536 57.4283 77.6469 58.4085H74.9006C74.7342 57.4468 74.3365 56.7071 73.7078 56.1893C73.079 55.6714 72.2745 55.4125 71.2943 55.4125C69.9443 55.4125 68.8254 56.0506 67.9377 57.3266C67.0685 58.5842 66.6061 60.526 66.5507 63.1522C66.9945 62.3384 67.6788 61.6449 68.6035 61.0716C69.5467 60.4983 70.6285 60.2117 71.8491 60.2117C72.9403 60.2117 73.9574 60.4706 74.9006 60.9884C75.8623 61.5062 76.639 62.2367 77.2308 63.1799C77.8411 64.1046 78.1463 65.205 78.1463 66.481C78.1463 67.6092 77.8688 68.6726 77.314 69.6712C76.7592 70.6699 75.9732 71.4836 74.9561 72.1124C73.9574 72.7227 72.7646 73.0278 71.3775 73.0278ZM71.2111 70.4757C71.9878 70.4757 72.6813 70.3093 73.2916 69.9764C73.9019 69.6435 74.3828 69.1904 74.7342 68.6171C75.0855 68.0253 75.2612 67.3595 75.2612 66.6197C75.2612 65.4361 74.8729 64.493 74.0961 63.7902C73.3379 63.0874 72.367 62.7361 71.1834 62.7361C70.4066 62.7361 69.7039 62.9117 69.0751 63.2631C68.4648 63.6145 67.9839 64.0861 67.6326 64.6779C67.2812 65.2512 67.1055 65.8892 67.1055 66.592C67.1055 67.3502 67.2812 68.0253 67.6326 68.6171C68.0024 69.1904 68.4925 69.6435 69.1028 69.9764C69.7316 70.3093 70.4344 70.4757 71.2111 70.4757ZM88.9606 72.6949V68.8113H79.2236V66.481L88.489 53.2765H91.8733V66.2591H94.5919V68.8113H91.8733V72.6949H88.9606ZM82.4138 66.2591H89.127V56.5222L82.4138 66.2591ZM95.3422 72.6949V70.5867C96.5998 69.588 97.8019 68.5801 98.9485 67.5629C100.095 66.5458 101.112 65.5471 102 64.5669C102.906 63.5683 103.618 62.5974 104.136 61.6542C104.654 60.6925 104.913 59.7678 104.913 58.8801C104.913 58.2883 104.811 57.7335 104.608 57.2157C104.404 56.6793 104.071 56.254 103.609 55.9396C103.147 55.6067 102.527 55.4403 101.75 55.4403C100.585 55.4403 99.7067 55.8101 99.1149 56.5499C98.5416 57.2896 98.2642 58.1773 98.2827 59.213H95.4254C95.4439 57.8445 95.7306 56.6978 96.2854 55.7732C96.8587 54.8485 97.6169 54.1457 98.5601 53.6649C99.5218 53.184 100.604 52.9436 101.806 52.9436C103.637 52.9436 105.098 53.4614 106.189 54.4971C107.298 55.5142 107.853 56.9383 107.853 58.7691C107.853 59.8603 107.585 60.9422 107.049 62.0148C106.531 63.0874 105.847 64.1231 104.996 65.1218C104.164 66.1019 103.267 67.0266 102.305 67.8958C101.343 68.765 100.428 69.551 99.5588 70.2538H108.436V72.6949H95.3422Z" fill="#121212"/>
<rect x="130.593" y="54.5294" width="39.3278" height="17.3311" rx="6.66389" fill="#DAFFE9"/>
<path d="M137.737 64.2278V63.5161H139.248V62.1007H139.984V63.5161H141.495V64.2278H139.984V65.6512H139.248V64.2278H137.737ZM144.692 66.1949V65.0754H141.886V64.4037L144.557 60.5973H145.532V64.3397H146.316V65.0754H145.532V66.1949H144.692ZM142.805 64.3397H144.74V61.5329L142.805 64.3397ZM148.603 66.2909C148.235 66.2909 147.921 66.2189 147.66 66.075C147.398 65.9311 147.193 65.7391 147.044 65.4992C146.9 65.2593 146.812 64.9981 146.78 64.7156H147.572C147.62 64.9928 147.734 65.206 147.916 65.3553C148.097 65.5046 148.329 65.5792 148.611 65.5792C149 65.5792 149.32 65.3979 149.571 65.0354C149.827 64.6676 149.963 64.1052 149.979 63.3481C149.851 63.5827 149.651 63.7826 149.379 63.9479C149.112 64.1131 148.803 64.1958 148.451 64.1958C148.137 64.1958 147.841 64.1211 147.564 63.9719C147.286 63.8226 147.063 63.6147 146.892 63.3481C146.721 63.0762 146.636 62.7564 146.636 62.3885C146.636 62.0633 146.716 61.7568 146.876 61.4689C147.036 61.181 147.26 60.9491 147.548 60.7732C147.841 60.5919 148.187 60.5013 148.587 60.5013C148.998 60.5013 149.344 60.5786 149.627 60.7332C149.909 60.8878 150.136 61.0931 150.307 61.349C150.477 61.6049 150.6 61.8927 150.674 62.2126C150.754 62.5325 150.794 62.8603 150.794 63.1962C150.794 63.8146 150.706 64.3557 150.53 64.8195C150.36 65.2833 150.112 65.6458 149.787 65.9071C149.462 66.163 149.067 66.2909 148.603 66.2909ZM148.643 63.4681C148.867 63.4681 149.067 63.4174 149.243 63.3161C149.419 63.2149 149.557 63.0816 149.659 62.9163C149.765 62.7457 149.819 62.5591 149.819 62.3565C149.819 62.138 149.765 61.9461 149.659 61.7808C149.557 61.6102 149.416 61.4769 149.235 61.381C149.059 61.285 148.859 61.237 148.635 61.237C148.411 61.237 148.211 61.285 148.035 61.381C147.86 61.4769 147.718 61.6102 147.612 61.7808C147.51 61.9461 147.46 62.1353 147.46 62.3485C147.46 62.6897 147.572 62.9616 147.796 63.1642C148.019 63.3668 148.302 63.4681 148.643 63.4681ZM153.616 66.2909C153.109 66.2909 152.672 66.171 152.304 65.9311C151.942 65.6858 151.662 65.3473 151.465 64.9155C151.273 64.4783 151.177 63.9719 151.177 63.3961C151.177 62.8204 151.273 62.3166 151.465 61.8847C151.662 61.4476 151.942 61.1091 152.304 60.8692C152.672 60.6239 153.109 60.5013 153.616 60.5013C154.122 60.5013 154.557 60.6239 154.919 60.8692C155.282 61.1091 155.559 61.4476 155.751 61.8847C155.948 62.3166 156.047 62.8204 156.047 63.3961C156.047 63.9719 155.948 64.4783 155.751 64.9155C155.559 65.3473 155.282 65.6858 154.919 65.9311C154.557 66.171 154.122 66.2909 153.616 66.2909ZM153.616 65.5312C153.92 65.5312 154.189 65.4459 154.423 65.2753C154.663 65.1047 154.85 64.8595 154.983 64.5396C155.117 64.2198 155.183 63.8386 155.183 63.3961C155.183 62.9536 155.117 62.5725 154.983 62.2526C154.85 61.9327 154.663 61.6875 154.423 61.5169C154.189 61.3463 153.92 61.261 153.616 61.261C153.307 61.261 153.035 61.3463 152.8 61.5169C152.566 61.6875 152.382 61.9327 152.248 62.2526C152.115 62.5725 152.048 62.9536 152.048 63.3961C152.048 63.8386 152.115 64.2198 152.248 64.5396C152.382 64.8595 152.566 65.1047 152.8 65.2753C153.035 65.4459 153.307 65.5312 153.616 65.5312ZM157.671 63.2682C157.421 63.2682 157.194 63.2122 156.992 63.1002C156.794 62.9883 156.637 62.831 156.52 62.6284C156.403 62.4205 156.344 62.1726 156.344 61.8847C156.344 61.6022 156.403 61.3596 156.52 61.157C156.637 60.9491 156.797 60.7892 157 60.6772C157.202 60.5653 157.429 60.5093 157.679 60.5093C157.925 60.5093 158.146 60.5653 158.343 60.6772C158.546 60.7892 158.706 60.9491 158.823 61.157C158.94 61.3596 158.999 61.6022 158.999 61.8847C158.999 62.1726 158.94 62.4205 158.823 62.6284C158.706 62.831 158.546 62.9883 158.343 63.1002C158.146 63.2122 157.922 63.2682 157.671 63.2682ZM157.271 66.1949L160.478 60.5973H161.31L158.111 66.1949H157.271ZM157.671 62.6604C157.842 62.6604 157.989 62.5964 158.111 62.4685C158.239 62.3352 158.303 62.1406 158.303 61.8847C158.303 61.6288 158.242 61.4369 158.119 61.309C157.997 61.1757 157.847 61.1091 157.671 61.1091C157.501 61.1091 157.351 61.1757 157.224 61.309C157.096 61.4369 157.032 61.6288 157.032 61.8847C157.032 62.1406 157.093 62.3352 157.216 62.4685C157.343 62.5964 157.495 62.6604 157.671 62.6604ZM160.958 66.2909C160.707 66.2909 160.481 66.2349 160.278 66.123C160.081 66.011 159.924 65.8538 159.806 65.6512C159.689 65.4433 159.631 65.1954 159.631 64.9075C159.631 64.6249 159.689 64.3797 159.806 64.1718C159.924 63.9639 160.084 63.8039 160.286 63.692C160.489 63.58 160.715 63.5241 160.966 63.5241C161.211 63.5241 161.432 63.58 161.63 63.692C161.832 63.8039 161.992 63.9639 162.109 64.1718C162.227 64.3797 162.285 64.6249 162.285 64.9075C162.285 65.1954 162.227 65.4433 162.109 65.6512C161.992 65.8538 161.832 66.011 161.63 66.123C161.432 66.2349 161.209 66.2909 160.958 66.2909ZM160.958 65.6752C161.129 65.6752 161.275 65.6112 161.398 65.4832C161.526 65.3553 161.59 65.1634 161.59 64.9075C161.59 64.6516 161.528 64.4597 161.406 64.3317C161.283 64.1984 161.134 64.1318 160.958 64.1318C160.787 64.1318 160.638 64.1984 160.51 64.3317C160.382 64.4597 160.318 64.6516 160.318 64.9075C160.318 65.1634 160.38 65.3553 160.502 65.4832C160.63 65.6112 160.782 65.6752 160.958 65.6752Z" fill="#0E803B"/>
<path fill-rule="evenodd" clip-rule="evenodd" d="M35.6433 119.01C40.2438 119.01 43.9732 122.74 43.9732 127.34L43.9732 154.662C43.9732 159.262 40.2438 162.992 35.6433 162.992C31.0429 162.992 27.3135 159.262 27.3135 154.662L27.3135 127.34C27.3135 122.74 31.0429 119.01 35.6433 119.01Z" fill="#7551DC"/>
<path fill-rule="evenodd" clip-rule="evenodd" d="M67.1306 109.014C71.7311 109.014 75.4605 112.744 75.4605 117.344L75.4605 154.662C75.4605 159.262 71.7311 162.992 67.1306 162.992C62.5302 162.992 58.8008 159.262 58.8008 154.662L58.8008 117.344C58.8008 112.744 62.5302 109.014 67.1306 109.014Z" fill="#7551DC"/>
<path fill-rule="evenodd" clip-rule="evenodd" d="M98.617 104.35C103.217 104.35 106.947 108.079 106.947 112.68L106.947 154.662C106.947 159.262 103.217 162.992 98.617 162.992C94.0165 162.992 90.2871 159.262 90.2871 154.662L90.2871 112.68C90.2871 108.079 94.0165 104.35 98.617 104.35Z" fill="#7551DC"/>
<path fill-rule="evenodd" clip-rule="evenodd" d="M130.104 88.3539C134.705 88.3539 138.434 92.0833 138.434 96.6838V154.662C138.434 159.262 134.705 162.992 130.104 162.992C125.504 162.992 121.774 159.262 121.774 154.662V96.6838C121.774 92.0833 125.504 88.3539 130.104 88.3539Z" fill="#7551DC"/>
<path fill-rule="evenodd" clip-rule="evenodd" d="M161.591 88.3563C166.191 88.3563 169.92 92.0857 169.92 96.6862L169.92 154.662C169.92 159.262 166.191 162.992 161.591 162.992C156.99 162.992 153.261 159.262 153.261 154.662L153.261 96.6862C153.261 92.0857 156.99 88.3563 161.591 88.3563Z" fill="#7551DC"/>
<g filter="url(#filter0_d_2041_25)">
<rect x="47.6582" y="133.178" width="180.684" height="67.7501" rx="33.8751" fill="white" shape-rendering="crispEdges"/>
<circle cx="81.5331" cy="167.053" r="21.2704" fill="#FFCC6A"/>
<path d="M72.3418 167.425L81.6419 158.125M81.6419 158.125L90.9421 167.425M81.6419 158.125V176.725" stroke="#7551DC" stroke-width="3.15117" stroke-linecap="round" stroke-linejoin="round"/>
<path d="M111.517 159.952V151.552H116.629V152.38H112.525V155.332H116.017V156.148H112.525V159.952H111.517ZM119.961 160.096C119.401 160.096 118.897 159.968 118.449 159.712C118.001 159.456 117.645 159.096 117.381 158.632C117.125 158.16 116.997 157.608 116.997 156.976C116.997 156.344 117.129 155.796 117.393 155.332C117.657 154.86 118.013 154.496 118.461 154.24C118.917 153.984 119.425 153.856 119.985 153.856C120.545 153.856 121.049 153.984 121.497 154.24C121.945 154.496 122.297 154.86 122.553 155.332C122.817 155.796 122.949 156.344 122.949 156.976C122.949 157.608 122.817 158.16 122.553 158.632C122.289 159.096 121.929 159.456 121.473 159.712C121.025 159.968 120.521 160.096 119.961 160.096ZM119.961 159.232C120.305 159.232 120.625 159.148 120.921 158.98C121.217 158.812 121.457 158.56 121.641 158.224C121.825 157.888 121.917 157.472 121.917 156.976C121.917 156.48 121.825 156.064 121.641 155.728C121.465 155.392 121.229 155.14 120.933 154.972C120.637 154.804 120.321 154.72 119.985 154.72C119.641 154.72 119.321 154.804 119.025 154.972C118.729 155.14 118.489 155.392 118.305 155.728C118.121 156.064 118.029 156.48 118.029 156.976C118.029 157.472 118.121 157.888 118.305 158.224C118.489 158.56 118.725 158.812 119.013 158.98C119.309 159.148 119.625 159.232 119.961 159.232ZM123.991 159.952V151.312H124.999V159.952H123.991ZM126.291 159.952V151.312H127.299V159.952H126.291ZM131.303 160.096C130.743 160.096 130.239 159.968 129.791 159.712C129.343 159.456 128.987 159.096 128.723 158.632C128.467 158.16 128.339 157.608 128.339 156.976C128.339 156.344 128.471 155.796 128.735 155.332C128.999 154.86 129.355 154.496 129.803 154.24C130.259 153.984 130.767 153.856 131.327 153.856C131.887 153.856 132.391 153.984 132.839 154.24C133.287 154.496 133.639 154.86 133.895 155.332C134.159 155.796 134.291 156.344 134.291 156.976C134.291 157.608 134.159 158.16 133.895 158.632C133.631 159.096 133.271 159.456 132.815 159.712C132.367 159.968 131.863 160.096 131.303 160.096ZM131.303 159.232C131.647 159.232 131.967 159.148 132.263 158.98C132.559 158.812 132.799 158.56 132.983 158.224C133.167 157.888 133.259 157.472 133.259 156.976C133.259 156.48 133.167 156.064 132.983 155.728C132.807 155.392 132.571 155.14 132.275 154.972C131.979 154.804 131.663 154.72 131.327 154.72C130.983 154.72 130.663 154.804 130.367 154.972C130.071 155.14 129.831 155.392 129.647 155.728C129.463 156.064 129.371 156.48 129.371 156.976C129.371 157.472 129.463 157.888 129.647 158.224C129.831 158.56 130.067 158.812 130.355 158.98C130.651 159.148 130.967 159.232 131.303 159.232ZM136.31 159.952L134.57 154H135.578L136.838 158.668L138.23 154H139.37L140.774 158.668L142.022 154H143.042L141.302 159.952H140.27L138.806 155.044L137.342 159.952H136.31ZM146.25 160.096C145.682 160.096 145.178 159.968 144.738 159.712C144.298 159.448 143.95 159.084 143.694 158.62C143.446 158.156 143.322 157.608 143.322 156.976C143.322 156.352 143.446 155.808 143.694 155.344C143.942 154.872 144.286 154.508 144.726 154.252C145.174 153.988 145.69 153.856 146.274 153.856C146.85 153.856 147.346 153.988 147.762 154.252C148.186 154.508 148.51 154.848 148.734 155.272C148.958 155.696 149.07 156.152 149.07 156.64C149.07 156.728 149.066 156.816 149.058 156.904C149.058 156.992 149.058 157.092 149.058 157.204H144.318C144.342 157.66 144.446 158.04 144.63 158.344C144.822 158.64 145.058 158.864 145.338 159.016C145.626 159.168 145.93 159.244 146.25 159.244C146.666 159.244 147.014 159.148 147.294 158.956C147.574 158.764 147.778 158.504 147.906 158.176H148.902C148.742 158.728 148.434 159.188 147.978 159.556C147.53 159.916 146.954 160.096 146.25 160.096ZM146.25 154.708C145.77 154.708 145.342 154.856 144.966 155.152C144.598 155.44 144.386 155.864 144.33 156.424H148.074C148.05 155.888 147.866 155.468 147.522 155.164C147.178 154.86 146.754 154.708 146.25 154.708ZM150.046 159.952V154H150.958L151.042 155.14C151.226 154.748 151.506 154.436 151.882 154.204C152.258 153.972 152.722 153.856 153.274 153.856V154.912H152.998C152.646 154.912 152.322 154.976 152.026 155.104C151.73 155.224 151.494 155.432 151.318 155.728C151.142 156.024 151.054 156.432 151.054 156.952V159.952H150.046ZM156.326 160.096C155.614 160.096 155.022 159.916 154.55 159.556C154.078 159.196 153.802 158.708 153.722 158.092H154.754C154.818 158.404 154.982 158.676 155.246 158.908C155.518 159.132 155.882 159.244 156.338 159.244C156.762 159.244 157.074 159.156 157.274 158.98C157.474 158.796 157.574 158.58 157.574 158.332C157.574 157.972 157.442 157.732 157.178 157.612C156.922 157.492 156.558 157.384 156.086 157.288C155.766 157.224 155.446 157.132 155.126 157.012C154.806 156.892 154.538 156.724 154.322 156.508C154.106 156.284 153.998 155.992 153.998 155.632C153.998 155.112 154.19 154.688 154.574 154.36C154.966 154.024 155.494 153.856 156.158 153.856C156.79 153.856 157.306 154.016 157.706 154.336C158.114 154.648 158.35 155.096 158.414 155.68H157.418C157.378 155.376 157.246 155.14 157.022 154.972C156.806 154.796 156.514 154.708 156.146 154.708C155.786 154.708 155.506 154.784 155.306 154.936C155.114 155.088 155.018 155.288 155.018 155.536C155.018 155.776 155.142 155.964 155.39 156.1C155.646 156.236 155.99 156.352 156.422 156.448C156.79 156.528 157.138 156.628 157.466 156.748C157.802 156.86 158.074 157.032 158.282 157.264C158.498 157.488 158.606 157.816 158.606 158.248C158.614 158.784 158.41 159.228 157.994 159.58C157.586 159.924 157.03 160.096 156.326 160.096Z" fill="#9E9E9E"/>
<path d="M116.829 184.394C115.896 184.394 115.049 184.227 114.289 183.894C113.542 183.547 112.942 183.067 112.489 182.454C112.049 181.84 111.829 181.12 111.829 180.294C111.829 179.454 112.062 178.7 112.529 178.034C113.009 177.367 113.642 176.914 114.429 176.674C113.722 176.394 113.176 175.987 112.789 175.454C112.402 174.907 112.209 174.307 112.209 173.654C112.209 172.974 112.389 172.354 112.749 171.794C113.109 171.22 113.629 170.767 114.309 170.434C115.002 170.087 115.842 169.914 116.829 169.914C117.816 169.914 118.649 170.087 119.329 170.434C120.022 170.767 120.549 171.22 120.909 171.794C121.269 172.354 121.449 172.974 121.449 173.654C121.449 174.294 121.249 174.894 120.849 175.454C120.462 176 119.916 176.407 119.209 176.674C119.996 176.927 120.622 177.387 121.089 178.054C121.569 178.707 121.809 179.454 121.809 180.294C121.809 181.12 121.589 181.84 121.149 182.454C120.709 183.067 120.109 183.547 119.349 183.894C118.602 184.227 117.762 184.394 116.829 184.394ZM116.829 175.994C117.602 175.994 118.209 175.794 118.649 175.394C119.102 174.994 119.329 174.48 119.329 173.854C119.329 173.147 119.109 172.607 118.669 172.234C118.229 171.86 117.616 171.674 116.829 171.674C116.042 171.674 115.429 171.86 114.989 172.234C114.549 172.607 114.329 173.147 114.329 173.854C114.329 174.48 114.549 174.994 114.989 175.394C115.429 175.794 116.042 175.994 116.829 175.994ZM116.829 182.594C117.789 182.594 118.509 182.367 118.989 181.914C119.469 181.447 119.709 180.854 119.709 180.134C119.709 179.334 119.449 178.72 118.929 178.294C118.422 177.854 117.722 177.634 116.829 177.634C115.936 177.634 115.229 177.854 114.709 178.294C114.189 178.72 113.929 179.334 113.929 180.134C113.929 180.854 114.169 181.447 114.649 181.914C115.142 182.367 115.869 182.594 116.829 182.594ZM127.424 184.394C126.504 184.394 125.717 184.214 125.064 183.854C124.411 183.494 123.897 183.014 123.524 182.414C123.164 181.814 122.944 181.16 122.864 180.454H124.844C124.964 181.147 125.251 181.68 125.704 182.054C126.157 182.427 126.737 182.614 127.444 182.614C128.417 182.614 129.217 182.16 129.844 181.254C130.484 180.334 130.824 178.927 130.864 177.034C130.544 177.62 130.044 178.12 129.364 178.534C128.697 178.947 127.924 179.154 127.044 179.154C126.257 179.154 125.517 178.967 124.824 178.594C124.131 178.22 123.571 177.7 123.144 177.034C122.717 176.354 122.504 175.554 122.504 174.634C122.504 173.82 122.704 173.054 123.104 172.334C123.504 171.614 124.064 171.034 124.784 170.594C125.517 170.14 126.384 169.914 127.384 169.914C128.411 169.914 129.277 170.107 129.984 170.494C130.691 170.88 131.257 171.394 131.684 172.034C132.111 172.674 132.417 173.394 132.604 174.194C132.804 174.994 132.904 175.814 132.904 176.654C132.904 178.2 132.684 179.554 132.244 180.714C131.817 181.874 131.197 182.78 130.384 183.434C129.571 184.074 128.584 184.394 127.424 184.394ZM127.524 177.334C128.084 177.334 128.584 177.207 129.024 176.954C129.464 176.7 129.811 176.367 130.064 175.954C130.331 175.527 130.464 175.06 130.464 174.554C130.464 174.007 130.331 173.527 130.064 173.114C129.811 172.687 129.457 172.354 129.004 172.114C128.564 171.874 128.064 171.754 127.504 171.754C126.944 171.754 126.444 171.874 126.004 172.114C125.564 172.354 125.211 172.687 124.944 173.114C124.691 173.527 124.564 174 124.564 174.534C124.564 175.387 124.844 176.067 125.404 176.574C125.964 177.08 126.671 177.334 127.524 177.334ZM132.901 186.514L134.061 181.794H136.161L134.321 186.514H132.901ZM141.923 184.394C140.936 184.394 140.083 184.22 139.363 183.874C138.643 183.514 138.069 183.027 137.643 182.414C137.229 181.787 136.976 181.08 136.883 180.294H138.963C139.096 180.96 139.429 181.514 139.963 181.954C140.496 182.38 141.156 182.594 141.943 182.594C142.529 182.594 143.036 182.454 143.463 182.174C143.889 181.88 144.223 181.494 144.463 181.014C144.703 180.534 144.823 179.994 144.823 179.394C144.823 178.447 144.556 177.694 144.023 177.134C143.489 176.56 142.816 176.274 142.003 176.274C141.309 176.274 140.716 176.44 140.223 176.774C139.729 177.094 139.369 177.5 139.143 177.994H137.123L138.323 170.154H145.883V172.014H139.923L139.203 175.754C139.509 175.407 139.929 175.12 140.463 174.894C141.009 174.654 141.623 174.534 142.303 174.534C143.249 174.534 144.063 174.754 144.743 175.194C145.423 175.62 145.943 176.2 146.303 176.934C146.676 177.667 146.863 178.48 146.863 179.374C146.863 180.307 146.663 181.154 146.263 181.914C145.863 182.674 145.289 183.28 144.543 183.734C143.809 184.174 142.936 184.394 141.923 184.394ZM152.647 184.394C151.74 184.394 150.914 184.234 150.167 183.914C149.434 183.58 148.847 183.08 148.407 182.414C147.967 181.747 147.734 180.914 147.707 179.914H149.807C149.834 180.66 150.087 181.294 150.567 181.814C151.06 182.32 151.754 182.574 152.647 182.574C153.5 182.574 154.154 182.34 154.607 181.874C155.06 181.394 155.287 180.8 155.287 180.094C155.287 179.24 154.98 178.607 154.367 178.194C153.767 177.78 153.027 177.574 152.147 177.574H151.107V175.814H152.167C152.954 175.814 153.587 175.627 154.067 175.254C154.56 174.88 154.807 174.354 154.807 173.674C154.807 173.1 154.614 172.634 154.227 172.274C153.854 171.914 153.32 171.734 152.627 171.734C151.907 171.734 151.34 171.947 150.927 172.374C150.514 172.787 150.287 173.307 150.247 173.934H148.147C148.174 173.12 148.374 172.414 148.747 171.814C149.134 171.214 149.66 170.747 150.327 170.414C150.994 170.08 151.76 169.914 152.627 169.914C153.56 169.914 154.34 170.08 154.967 170.414C155.607 170.734 156.087 171.174 156.407 171.734C156.74 172.28 156.907 172.88 156.907 173.534C156.907 174.28 156.7 174.934 156.287 175.494C155.874 176.054 155.32 176.427 154.627 176.614C155.427 176.787 156.087 177.18 156.607 177.794C157.127 178.394 157.387 179.174 157.387 180.134C157.387 180.907 157.207 181.62 156.847 182.274C156.487 182.914 155.954 183.427 155.247 183.814C154.54 184.2 153.674 184.394 152.647 184.394ZM158.523 184.154V182.634C159.429 181.914 160.296 181.187 161.123 180.454C161.949 179.72 162.683 179 163.323 178.294C163.976 177.574 164.489 176.874 164.863 176.194C165.236 175.5 165.423 174.834 165.423 174.194C165.423 173.767 165.349 173.367 165.203 172.994C165.056 172.607 164.816 172.3 164.483 172.074C164.149 171.834 163.703 171.714 163.143 171.714C162.303 171.714 161.669 171.98 161.243 172.514C160.829 173.047 160.629 173.687 160.643 174.434H158.583C158.596 173.447 158.803 172.62 159.203 171.954C159.616 171.287 160.163 170.78 160.843 170.434C161.536 170.087 162.316 169.914 163.183 169.914C164.503 169.914 165.556 170.287 166.343 171.034C167.143 171.767 167.543 172.794 167.543 174.114C167.543 174.9 167.349 175.68 166.963 176.454C166.589 177.227 166.096 177.974 165.483 178.694C164.883 179.4 164.236 180.067 163.543 180.694C162.849 181.32 162.189 181.887 161.563 182.394H167.963V184.154H158.523Z" fill="#121212"/>
<rect x="182.233" y="169.053" width="33.5039" height="16.2016" rx="5.25195" fill="#DAFFE9"/>
<path d="M187.965 178.187V177.475H189.477V176.059H190.212V177.475H191.724V178.187H190.212V179.61H189.477V178.187H187.965ZM192.946 180.154V175.516L192.042 175.724V175.1L193.282 174.556H193.825V180.154H192.946ZM194.451 180.154V179.546C194.813 179.258 195.16 178.968 195.491 178.674C195.821 178.381 196.114 178.093 196.37 177.811C196.631 177.523 196.837 177.243 196.986 176.971C197.135 176.694 197.21 176.427 197.21 176.171C197.21 176.001 197.18 175.841 197.122 175.692C197.063 175.537 196.967 175.414 196.834 175.324C196.701 175.228 196.522 175.18 196.298 175.18C195.962 175.18 195.709 175.286 195.538 175.5C195.373 175.713 195.293 175.969 195.299 176.267H194.475C194.48 175.873 194.563 175.542 194.723 175.276C194.888 175.009 195.107 174.807 195.379 174.668C195.656 174.529 195.968 174.46 196.314 174.46C196.842 174.46 197.263 174.609 197.578 174.908C197.898 175.201 198.057 175.612 198.057 176.139C198.057 176.454 197.98 176.766 197.826 177.075C197.676 177.384 197.479 177.683 197.234 177.971C196.994 178.253 196.735 178.52 196.458 178.77C196.181 179.021 195.917 179.247 195.666 179.45H198.225V180.154H194.451ZM200.916 180.25C200.409 180.25 199.972 180.13 199.604 179.89C199.242 179.645 198.962 179.306 198.765 178.874C198.573 178.437 198.477 177.931 198.477 177.355C198.477 176.779 198.573 176.275 198.765 175.843C198.962 175.406 199.242 175.068 199.604 174.828C199.972 174.583 200.409 174.46 200.916 174.46C201.422 174.46 201.857 174.583 202.219 174.828C202.582 175.068 202.859 175.406 203.051 175.843C203.248 176.275 203.347 176.779 203.347 177.355C203.347 177.931 203.248 178.437 203.051 178.874C202.859 179.306 202.582 179.645 202.219 179.89C201.857 180.13 201.422 180.25 200.916 180.25ZM200.916 179.49C201.22 179.49 201.489 179.405 201.724 179.234C201.963 179.063 202.15 178.818 202.283 178.498C202.417 178.179 202.483 177.797 202.483 177.355C202.483 176.912 202.417 176.531 202.283 176.211C202.15 175.891 201.963 175.646 201.724 175.476C201.489 175.305 201.22 175.22 200.916 175.22C200.607 175.22 200.335 175.305 200.1 175.476C199.866 175.646 199.682 175.891 199.548 176.211C199.415 176.531 199.349 176.912 199.349 177.355C199.349 177.797 199.415 178.179 199.548 178.498C199.682 178.818 199.866 179.063 200.1 179.234C200.335 179.405 200.607 179.49 200.916 179.49ZM204.971 177.227C204.721 177.227 204.494 177.171 204.292 177.059C204.094 176.947 203.937 176.79 203.82 176.587C203.703 176.379 203.644 176.131 203.644 175.843C203.644 175.561 203.703 175.318 203.82 175.116C203.937 174.908 204.097 174.748 204.3 174.636C204.502 174.524 204.729 174.468 204.979 174.468C205.225 174.468 205.446 174.524 205.643 174.636C205.846 174.748 206.006 174.908 206.123 175.116C206.24 175.318 206.299 175.561 206.299 175.843C206.299 176.131 206.24 176.379 206.123 176.587C206.006 176.79 205.846 176.947 205.643 177.059C205.446 177.171 205.222 177.227 204.971 177.227ZM204.572 180.154L207.778 174.556H208.61L205.411 180.154H204.572ZM204.971 176.619C205.142 176.619 205.289 176.555 205.411 176.427C205.539 176.294 205.603 176.099 205.603 175.843C205.603 175.588 205.542 175.396 205.419 175.268C205.297 175.134 205.147 175.068 204.971 175.068C204.801 175.068 204.652 175.134 204.524 175.268C204.396 175.396 204.332 175.588 204.332 175.843C204.332 176.099 204.393 176.294 204.516 176.427C204.644 176.555 204.795 176.619 204.971 176.619ZM208.258 180.25C208.007 180.25 207.781 180.194 207.578 180.082C207.381 179.97 207.224 179.812 207.106 179.61C206.989 179.402 206.931 179.154 206.931 178.866C206.931 178.584 206.989 178.338 207.106 178.131C207.224 177.923 207.384 177.763 207.586 177.651C207.789 177.539 208.015 177.483 208.266 177.483C208.511 177.483 208.732 177.539 208.93 177.651C209.132 177.763 209.292 177.923 209.41 178.131C209.527 178.338 209.585 178.584 209.585 178.866C209.585 179.154 209.527 179.402 209.41 179.61C209.292 179.812 209.132 179.97 208.93 180.082C208.732 180.194 208.509 180.25 208.258 180.25ZM208.258 179.634C208.429 179.634 208.575 179.57 208.698 179.442C208.826 179.314 208.89 179.122 208.89 178.866C208.89 178.61 208.828 178.418 208.706 178.29C208.583 178.157 208.434 178.091 208.258 178.091C208.087 178.091 207.938 178.157 207.81 178.29C207.682 178.418 207.618 178.61 207.618 178.866C207.618 179.122 207.68 179.314 207.802 179.442C207.93 179.57 208.082 179.634 208.258 179.634Z" fill="#0E803B"/>
</g>
<defs>
<filter id="filter0_d_2041_25" x="13.4231" y="120.462" width="229.591" height="116.657" filterUnits="userSpaceOnUse" color-interpolation-filters="sRGB">
<feFlood flood-opacity="0" result="BackgroundImageFix"/>
<feColorMatrix in="SourceAlpha" type="matrix" values="0 0 0 0 0 0 0 0 0 0 0 0 0 0 0 0 0 0 127 0" result="hardAlpha"/>
<feOffset dx="-9.78145" dy="11.7377"/>
<feGaussianBlur stdDeviation="12.2268"/>
<feComposite in2="hardAlpha" operator="out"/>
<feColorMatrix type="matrix" values="0 0 0 0 0.384371 0 0 0 0 0.102708 0 0 0 0 0.483333 0 0 0 0.05 0"/>
<feBlend mode="normal" in2="BackgroundImageFix" result="effect1_dropShadow_2041_25"/>
<feBlend mode="normal" in="SourceGraphic" in2="effect1_dropShadow_2041_25" result="shape"/>
</filter>
</defs>
</svg>
